<svg version="1.2" xmlns="http://www.w3.org/2000/svg" viewBox="0 0 1314 377" width="1314" height="377"><defs><clipPath clipPathUnits="userSpaceOnUse" id="cp1"><path d="m0 60c0-18.64 0-27.96 3.04-35.31 4.06-9.8 11.85-17.59 21.65-21.65 7.35-3.04 16.67-3.04 35.31-3.04h1253.31v276.75c0 18.63 0 27.95-3.04 35.3-4.06 9.81-11.85 17.59-21.65 21.65-7.35 3.05-16.67 3.05-35.31 3.05h-1253.31z"/></clipPath><clipPath clipPathUnits="userSpaceOnUse" id="cp2"><path d="m-44 1.35h1347c13.81 0 25 11.19 25 25v309.36c0 13.81-11.19 25-25 25h-1347c-13.81 0-25-11.19-25-25v-309.36c0-13.81 11.19-25 25-25z"/></clipPath></defs><style>.a{opacity:.1;fill:#d71a21}.b{opacity:.3;fill:#d71a21}.c{fill:#d71a21}.d{opacity:.2;fill:#fff}.e{opacity:.3;fill:none;stroke:#fff;stroke-width:2}</style><path class="a" d="m67.3 102.2c0-13.9 0-20.9 2.3-26.4 3.1-7.4 8.9-13.2 16.3-16.3 5.5-2.3 12.5-2.3 26.4-2.3h1088.7c13.9 0 20.9 0 26.4 2.3 7.4 3.1 13.2 8.9 16.3 16.3 2.3 5.5 2.3 12.5 2.3 26.4v228.8c0 14 0 21-2.3 26.5-3.1 7.4-8.9 13.2-16.3 16.3-5.5 2.2-12.5 2.2-26.4 2.2h-1133.7z"/><path class="b" d="m39.3 85.4c0-14 0-21 2.3-26.5 3-7.3 8.9-13.2 16.2-16.2 5.5-2.3 12.5-2.3 26.5-2.3h1144.7c14 0 21 0 26.5 2.3 7.4 3 13.2 8.9 16.2 16.2 2.3 5.5 2.3 12.5 2.3 26.5v228.8c0 14 0 21-2.3 26.5-3 7.3-8.8 13.2-16.2 16.2-5.5 2.3-12.5 2.3-26.5 2.3h-1189.7z"/><g clip-path="url(#cp1)"><path class="c" d="m0 60c0-18.6 0-28 3-35.3 4.1-9.8 11.9-17.6 21.7-21.7 7.3-3 16.7-3 35.3-3h1253.3v276.7c0 18.7 0 28-3 35.4-4.1 9.8-11.9 17.5-21.7 21.6-7.3 3-16.6 3-35.3 3h-1253.3z"/><g clip-path="url(#cp2)"><path class="d" d="m989 0h61v102.5c0 16.9-13.7 30.5-30.5 30.5-16.8 0-30.5-13.6-30.5-30.5z"/><path class="d" d="m1060 0h62v141c0 17.2-13.9 31-31 31-17.1 0-31-13.8-31-31z"/><path class="d" d="m1131 0h62v193c0 17.2-13.9 31-31 31-17.1 0-31-13.8-31-31z"/><path class="d" d="m1203 0h61v275.5c0 16.9-13.7 30.5-30.5 30.5-16.8 0-30.5-13.6-30.5-30.5z"/><path class="e" d="m1068.5 450.5c-66.4 14.4-131.7-27.6-146.2-94-14.4-66.4 27.6-131.7 94-146.1 66.3-14.5 131.7 27.5 146.1 93.9 14.5 66.4-27.5 131.7-93.9 146.2z"/><path class="e" d="m1057.4 487.9c-66.4 14.4-131.7-27.5-146.2-93.9-14.4-66.4 27.6-131.8 94-146.2 66.3-14.5 131.7 27.5 146.1 93.9 14.5 66.4-27.5 131.7-93.9 146.2z"/><path class="e" d="m1045.8 511.6c-66.4 14.5-131.7-27.5-146.2-93.9-14.4-66.4 27.6-131.7 94-146.2 66.3-14.4 131.7 27.6 146.1 93.9 14.5 66.4-27.5 131.8-93.9 146.2z"/><path class="e" d="m1020 531.1c-66.4 14.4-131.8-27.6-146.2-94-14.5-66.3 27.5-131.7 93.9-146.1 66.4-14.5 131.7 27.5 146.2 93.9 14.4 66.4-27.6 131.7-93.9 146.2z"/><path class="e" d="m988.7 550.7c-66.4 14.4-131.7-27.6-146.2-93.9-14.4-66.4 27.6-131.8 94-146.2 66.3-14.5 131.7 27.5 146.1 93.9 14.5 66.4-27.5 131.7-93.9 146.2z"/><path class="e" d="m18.1 93.4c-75.3 0-136.2-60.9-136.2-136.2 0-75.3 60.9-136.2 136.2-136.2 75.3 0 136.2 60.9 136.2 136.2 0 75.3-60.9 136.2-136.2 136.2z"/><path class="e" d="m-2.7 131.2c-75.3 0-136.2-60.8-136.2-136.1 0-75.3 60.9-136.2 136.2-136.2 75.3 0 136.1 60.9 136.1 136.2 0 75.3-60.8 136.1-136.1 136.1z"/><path class="e" d="m-20.9 154.2c-75.3 0-136.1-60.9-136.1-136.2 0-75.3 60.8-136.1 136.1-136.1 75.3 0 136.2 60.8 136.2 136.1 0 75.3-60.9 136.2-136.2 136.2z"/><path class="e" d="m-53.4 169.1c-75.3 0-136.2-60.8-136.2-136.1 0-75.3 60.9-136.2 136.2-136.2 75.3 0 136.1 60.9 136.1 136.2 0 75.3-60.8 136.1-136.1 136.1z"/><path class="e" d="m-91.8 183c-75.3 0-136.2-60.8-136.2-136.1 0-75.3 60.9-136.2 136.2-136.2 75.3 0 136.1 60.9 136.1 136.2 0 75.3-60.8 136.1-136.1 136.1z"/><path class="e" d="m749.1 58.4c-75.3 0-136.2-60.9-136.2-136.2 0-75.3 60.9-136.2 136.2-136.2 75.3 0 136.2 60.9 136.2 136.2 0 75.3-60.9 136.2-136.2 136.2z"/><path class="e" d="m728.3 96.2c-75.3 0-136.2-60.8-136.2-136.1 0-75.3 60.9-136.2 136.2-136.2 75.3 0 136.1 60.9 136.1 136.2 0 75.3-60.8 136.1-136.1 136.1z"/><path class="e" d="m710.1 119.2c-75.3 0-136.1-60.9-136.1-136.2 0-75.3 60.8-136.1 136.1-136.1 75.3 0 136.2 60.8 136.2 136.1 0 75.3-60.9 136.2-136.2 136.2z"/><path class="e" d="m677.6 134.1c-75.3 0-136.2-60.8-136.2-136.1 0-75.3 60.9-136.2 136.2-136.2 75.3 0 136.1 60.9 136.1 136.2 0 75.3-60.8 136.1-136.1 136.1z"/><path class="e" d="m639.2 148c-75.3 0-136.2-60.8-136.2-136.1 0-75.3 60.9-136.2 136.2-136.2 75.3 0 136.1 60.9 136.1 136.2 0 75.3-60.8 136.1-136.1 136.1z"/></g></g></svg>