<svg version="1.2" xmlns="http://www.w3.org/2000/svg" viewBox="0 0 11 39" width="11" height="39"><defs><clipPath clipPathUnits="userSpaceOnUse" id="cp1"><path d="m-385-5565h1920v6070h-1920z"/></clipPath></defs><style>.a{fill:#fff}.b{opacity:.1;fill:#d71a21}.c{opacity:.3;fill:#d71a21}</style><g clip-path="url(#cp1)"><path class="a" d="m-385-5565h1920v6070h-1920z"/><path class="b" d="m-14.7-234.8c0-13.9 0-20.9 2.3-26.4 3.1-7.4 8.9-13.2 16.3-16.3 5.5-2.3 12.5-2.3 26.4-2.3h1088.7c13.9 0 20.9 0 26.4 2.3 7.4 3.1 13.2 8.9 16.3 16.3 2.3 5.5 2.3 12.5 2.3 26.4v228.8c0 14 0 21-2.3 26.5-3.1 7.4-8.9 13.2-16.3 16.3-5.5 2.2-12.5 2.2-26.4 2.2h-1133.7z"/><path class="c" d="m-42.7-251.6c0-14 0-21 2.3-26.5 3-7.3 8.9-13.2 16.2-16.2 5.5-2.3 12.5-2.3 26.5-2.3h1144.7c14 0 21 0 26.5 2.3 7.4 3 13.2 8.9 16.2 16.2 2.3 5.5 2.3 12.5 2.3 26.5v228.8c0 14 0 21-2.3 26.5-3 7.3-8.8 13.2-16.2 16.2-5.5 2.3-12.5 2.3-26.5 2.3h-1189.7z"/></g></svg>