<svg version="1.2" xmlns="http://www.w3.org/2000/svg" viewBox="0 0 76 40" width="76" height="40"><defs><clipPath clipPathUnits="userSpaceOnUse" id="cp1"><path d="m-1505-5564h1920v6070h-1920z"/></clipPath><clipPath clipPathUnits="userSpaceOnUse" id="cp2"><path d="m-1202-276c0-18.64 0-27.96 3.04-35.31 4.06-9.8 11.85-17.58 21.65-21.64 7.35-3.05 16.67-3.05 35.31-3.05h1253.31v276.75c0 18.63 0 27.95-3.04 35.3-4.06 9.81-11.85 17.59-21.65 21.65-7.35 3.05-16.67 3.05-35.31 3.05h-1253.31z"/></clipPath><clipPath clipPathUnits="userSpaceOnUse" id="cp3"><path d="m-1246-334.65h1347c13.81 0 25 11.19 25 25v309.36c0 13.81-11.19 25-25 25h-1347c-13.81 0-25-11.19-25-25v-309.36c0-13.81 11.19-25 25-25z"/></clipPath></defs><style>.a{fill:#fff}.b{opacity:.1;fill:#d71a21}.c{opacity:.3;fill:#d71a21}.d{fill:#5192ff}</style><g clip-path="url(#cp1)"><path class="a" d="m-1505-5564h1920v6070h-1920z"/><path class="b" d="m-1134.7-233.8c0-13.9 0-20.9 2.3-26.4 3.1-7.4 8.9-13.2 16.3-16.3 5.5-2.3 12.5-2.3 26.4-2.3h1088.7c13.9 0 20.9 0 26.4 2.3 7.4 3.1 13.2 8.9 16.3 16.3 2.3 5.5 2.3 12.5 2.3 26.4v228.8c0 14 0 21-2.3 26.5-3.1 7.4-8.9 13.2-16.3 16.3-5.5 2.2-12.5 2.2-26.4 2.2h-1133.7z"/><path class="c" d="m-1162.7-250.6c0-14 0-21 2.3-26.5 3-7.3 8.9-13.2 16.2-16.2 5.5-2.3 12.5-2.3 26.5-2.3h1144.7c14 0 21 0 26.5 2.3 7.4 3 13.2 8.9 16.2 16.2 2.3 5.5 2.3 12.5 2.3 26.5v228.8c0 14 0 21-2.3 26.5-3 7.3-8.8 13.2-16.2 16.2-5.5 2.3-12.5 2.3-26.5 2.3h-1189.7z"/><g clip-path="url(#cp2)"><path class="d" d="m-1202-276c0-18.6 0-28 3-35.3 4.1-9.8 11.9-17.6 21.7-21.7 7.3-3 16.7-3 35.3-3h1253.3v276.7c0 18.7 0 28-3 35.4-4.1 9.8-11.9 17.5-21.7 21.6-7.3 3-16.6 3-35.3 3h-1253.3z"/><g clip-path="url(#cp3)"></g></g></g></svg>