<svg version="1.2" xmlns="http://www.w3.org/2000/svg" viewBox="0 0 698 632" width="698" height="632"><style>.a{fill:#fff}.b{fill:#d71a21}.c{fill:#2f2e41}.d{fill:#ccc}.e{fill:#f2f2f2}.f{fill:#e6e6e6}.g{fill:#3f3d56}</style><path class="a" d="m305.1 522.3h-291.3c-1.8-0.1-3.6-0.4-5.3-1.1-1.6-0.7-3.2-1.7-4.4-3-1.3-1.3-2.3-2.8-3-4.5-0.7-1.7-1.1-3.5-1.1-5.3v-395.3c0-1.8 0.4-3.6 1.1-5.3 0.7-1.7 1.7-3.2 3-4.5 1.2-1.3 2.8-2.3 4.4-3 1.7-0.7 3.5-1.1 5.3-1.1h291.3c1.8 0 3.6 0.4 5.2 1.1 1.7 0.7 3.2 1.7 4.5 3 1.3 1.3 2.3 2.8 3 4.5 0.7 1.7 1.1 3.5 1.1 5.3v395.3c0 1.8-0.4 3.6-1.1 5.3-0.7 1.7-1.7 3.2-3 4.5-1.3 1.3-2.8 2.3-4.5 3-1.6 0.7-3.4 1-5.2 1.1z"/><path class="a" d="m146.3 202.1c0 5.7-0.9 11.3-2.6 16.7-1.8 5.4-4.4 10.5-7.7 15.1-3.3 4.6-7.4 8.6-12 12-4.5 3.3-9.6 5.9-15 7.7q-0.5 0.1-1 0.3-2.1 0.6-4.3 1.1-1 0.2-2 0.4-1 0.2-2 0.3-1 0.1-2 0.2-1 0.1-2 0.2-1.7 0.1-3.5 0.1-2.3 0-4.5-0.2-2.3-0.2-4.5-0.5-2.3-0.4-4.5-1-2.2-0.6-4.4-1.3-0.2-0.1-0.5-0.2c-18.9-6.8-32.5-23.7-35.2-43.7-2.7-20 6-39.8 22.5-51.4 16.6-11.6 38.2-13.1 56.1-3.8 17.9 9.3 29.1 27.9 29.1 48z"/><path class="b" d="m90.9 238c-14.5 0-26.3-11.8-26.3-26.3 0-14.6 11.8-26.4 26.3-26.4 14.6 0 26.3 11.8 26.3 26.4 0 14.5-11.7 26.3-26.3 26.3z"/><path class="c" d="m92.5 225.8v-0.9c-1.8-0.1-3.5-0.2-4.7-1.1q-0.2-0.2-0.4-0.4-0.2-0.3-0.4-0.6-0.1-0.3-0.2-0.6-0.1-0.3-0.1-0.6-0.1-0.2 0-0.4 0-0.2 0.1-0.4 0.1-0.2 0.2-0.4 0.1-0.1 0.2-0.3 0.4-0.2 0.8-0.3 0.3-0.1 0.8-0.1 0.4 0 0.7 0.1 0.4 0.1 0.8 0.3l0.8 0.4-1.6-11.4-0.9 0.1 1.3 9.7q-0.4-0.1-0.9-0.2-0.4 0-0.8 0-0.5 0.1-0.9 0.3-0.4 0.1-0.7 0.4-0.2 0.2-0.4 0.5-0.2 0.2-0.3 0.5-0.1 0.3-0.2 0.6 0 0.3 0 0.6 0 0.4 0.1 0.9 0.1 0.4 0.3 0.8 0.2 0.4 0.5 0.7 0.3 0.3 0.7 0.6c1.5 1.1 3.5 1.2 5.2 1.2z"/><path class="c" d="m78.4 210.1h5.3v0.9h-5.3z"/><path class="c" d="m95.2 210.1h5.3v0.9h-5.3z"/><path class="c" d="m98.4 248.4q0-0.1 0.1-0.2 0-0.1 0-0.2 0-0.2 0-0.3 0-0.1 0-0.2 0-1-0.3-1.8-0.4-0.9-1.1-1.5-0.6-0.7-1.5-1.1-0.8-0.3-1.8-0.3h-6.8q-1 0-1.8 0.3-0.9 0.4-1.5 1.1-0.7 0.6-1.1 1.5-0.3 0.8-0.3 1.8 0 0.1 0 0.2 0 0.1 0 0.3 0 0.1 0 0.2 0.1 0.1 0.1 0.3-1 0.3-1.9 0.6-1 0.4-1.9 0.9-0.9 0.4-1.8 0.9-0.9 0.6-1.7 1.2-0.6 0.4-1.3 0.9 0.3 0.1 0.5 0.2 2.2 0.7 4.4 1.3 2.2 0.6 4.5 1 2.2 0.3 4.5 0.5 2.2 0.2 4.5 0.2 1.8 0 3.5-0.1 1-0.1 2-0.2 1-0.1 2-0.2 1-0.1 2-0.3 1-0.2 2-0.4 2.2-0.5 4.3-1.1-1-0.9-2.2-1.7-1.1-0.9-2.3-1.5-1.2-0.7-2.5-1.3-1.3-0.5-2.6-1z"/><path class="c" d="m97.5 255.5q-0.2 0-0.5 0-0.2 0.1-0.4 0.2-0.2 0.1-0.5 0.2-0.2 0.1-0.4 0.2 1-0.1 2-0.2 1-0.1 2-0.2 1-0.1 2-0.3 1-0.2 2-0.4z"/><path class="c" d="m114.8 205.4l-45.7-16.7q-0.4-0.2-0.7-0.4-0.3-0.3-0.4-0.6-0.2-0.4-0.2-0.8 0-0.4 0.1-0.7l0.2-0.8c3.5-9.7 15.4-15.9 25.1-12.3l14.1 5.1c9.8 3.6 14 15.2 10.4 24.9l-0.4 1.1q-0.1 0.4-0.4 0.7-0.2 0.3-0.6 0.4-0.4 0.2-0.7 0.2-0.4 0-0.8-0.1z"/><path class="c" d="m117.3 206.3c-63.8 2.4-69.3-5.6-49.9-18.2l4.1-7.6 47.2 17.2z"/><path class="c" d="m104.8 177c-0.4 1.2-2.5 1.6-4.7 1-2.2-0.7-3.7-2.2-3.3-3.4 0.3-1.1 2.4-1.5 4.6-0.9 2.2 0.7 3.7 2.2 3.4 3.3z"/><path fill-rule="evenodd" class="d" d="m92.2 257.7q-2.3 0-4.7-0.2-2.3-0.2-4.6-0.6-2.3-0.4-4.6-1-2.2-0.5-4.4-1.3l-0.6-0.2c-25.5-9.2-40.6-35.6-35.7-62.3 4.9-26.7 28.4-45.9 55.5-45.5 27.2 0.4 50 20.4 54.1 47.3 4 26.8-11.9 52.7-37.8 61.1q-0.5 0.1-1 0.3-2.1 0.6-4.4 1.1-1 0.3-2 0.4-1 0.2-2.1 0.4-1 0.1-2 0.2-1 0.1-2.1 0.2-1.8 0.1-3.6 0.1zm0-108.2c-12.4 0-24.3 4.4-33.8 12.4-9.5 7.9-15.9 19-18 31.2-2.1 12.2 0.1 24.7 6.3 35.4 6.2 10.7 16 18.9 27.6 23.1l0.5 0.2q2.1 0.7 4.3 1.3 2.1 0.5 4.3 0.9 2.2 0.4 4.4 0.6 2.2 0.2 4.4 0.1 1.7 0 3.4-0.1 1 0 2-0.1 1-0.1 1.9-0.3 1-0.1 2-0.3 0.9-0.1 1.9-0.3 2.2-0.5 4.2-1.1 0.4-0.2 0.9-0.3c11.9-3.9 22.1-11.9 28.6-22.6 6.5-10.7 9.1-23.3 7.1-35.7-2-12.4-8.3-23.6-17.8-31.8-9.5-8.1-21.7-12.6-34.2-12.6z"/><path class="e" d=""/><path fill-rule="evenodd" class="d" d="m305.1 522.3h-291.3c-1.8-0.1-3.6-0.4-5.3-1.1-1.6-0.7-3.2-1.7-4.4-3-1.3-1.3-2.3-2.8-3-4.5-0.7-1.7-1.1-3.5-1.1-5.3v-395.3c0-1.8 0.4-3.6 1.1-5.3 0.7-1.7 1.7-3.2 3-4.5 1.2-1.3 2.8-2.3 4.4-3 1.7-0.7 3.5-1.1 5.3-1.1h291.3c1.8 0 3.6 0.4 5.2 1.1 1.7 0.7 3.2 1.7 4.5 3 1.3 1.3 2.3 2.8 3 4.5 0.7 1.7 1.1 3.5 1.1 5.3v395.3c0 1.8-0.4 3.6-1.1 5.3-0.7 1.7-1.7 3.2-3 4.5-1.3 1.3-2.8 2.3-4.5 3-1.6 0.7-3.4 1-5.2 1.1zm-291.3-421.4c-1.6 0-3.2 0.3-4.6 0.9-1.5 0.6-2.9 1.5-4 2.6-1.1 1.2-2 2.5-2.6 4-0.7 1.5-1 3.1-1 4.7v395.3c0 1.6 0.3 3.2 1 4.7 0.6 1.5 1.5 2.8 2.6 3.9 1.1 1.2 2.5 2.1 4 2.7 1.4 0.6 3 0.9 4.6 0.9h291.3c1.6 0 3.1-0.3 4.6-0.9 1.5-0.6 2.8-1.5 4-2.7 1.1-1.1 2-2.4 2.6-3.9 0.6-1.5 1-3.1 1-4.7v-395.3c0-1.6-0.4-3.2-1-4.7-0.6-1.5-1.5-2.8-2.6-4-1.2-1.1-2.5-2-4-2.6-1.5-0.6-3-0.9-4.6-0.9z"/><path class="f" d="m248.7 201.9h-82.4c-1.8 0-3.4-0.7-4.6-1.9-1.3-1.2-1.9-2.9-1.9-4.6 0-1.7 0.6-3.4 1.9-4.6 1.2-1.2 2.8-1.9 4.6-1.9h82.4c1.7 0 3.4 0.7 4.6 1.9 1.2 1.2 1.9 2.9 1.9 4.6 0 1.7-0.7 3.4-1.9 4.6-1.2 1.2-2.9 1.9-4.6 1.9z"/><path class="f" d="m275.6 223.9h-109.3c-1.8 0-3.4-0.7-4.6-1.9-1.3-1.2-1.9-2.9-1.9-4.6 0-1.7 0.6-3.4 1.9-4.6 1.2-1.2 2.8-1.9 4.6-1.9h109.3c1.7 0 3.4 0.7 4.6 1.9 1.2 1.2 1.9 2.9 1.9 4.6 0 1.7-0.7 3.4-1.9 4.6-1.2 1.2-2.9 1.9-4.6 1.9z"/><path class="f" d="m248.6 308.3h-205.3c-1.7 0-3.4-0.7-4.6-1.9-1.2-1.2-1.9-2.9-1.9-4.6 0-1.7 0.7-3.4 1.9-4.6 1.2-1.2 2.9-1.9 4.6-1.9h205.3c1.7 0 3.3 0.7 4.6 1.9 1.2 1.2 1.9 2.9 1.9 4.6 0 1.7-0.7 3.4-1.9 4.6-1.3 1.2-2.9 1.9-4.6 1.9z"/><path class="f" d="m275.4 330.3h-232.1c-1.7 0-3.4-0.7-4.6-1.9-1.2-1.2-1.9-2.9-1.9-4.6 0-1.7 0.7-3.4 1.9-4.6 1.2-1.2 2.9-1.9 4.6-1.9h232.1c1.8 0 3.4 0.7 4.7 1.9 1.2 1.2 1.9 2.9 1.9 4.6 0 1.7-0.7 3.4-1.9 4.6-1.3 1.2-2.9 1.9-4.7 1.9z"/><path class="f" d="m248.6 380.9h-205.3c-1.7 0-3.4-0.7-4.6-1.9-1.2-1.2-1.9-2.9-1.9-4.6 0-1.8 0.7-3.4 1.9-4.6 1.2-1.3 2.9-1.9 4.6-1.9h205.3c1.7 0 3.3 0.6 4.6 1.9 1.2 1.2 1.9 2.8 1.9 4.6 0 1.7-0.7 3.4-1.9 4.6-1.3 1.2-2.9 1.9-4.6 1.9z"/><path class="f" d="m275.4 402.9h-232.1c-1.7 0-3.4-0.7-4.6-1.9-1.2-1.2-1.9-2.9-1.9-4.6 0-1.8 0.7-3.4 1.9-4.6 1.2-1.3 2.9-1.9 4.6-1.9h232.1c1.8 0 3.4 0.6 4.7 1.9 1.2 1.2 1.9 2.8 1.9 4.6 0 1.7-0.7 3.4-1.9 4.6-1.3 1.2-2.9 1.9-4.7 1.9z"/><path class="f" d="m248.6 453.5h-205.3c-1.7 0-3.4-0.7-4.6-1.9-1.2-1.3-1.9-2.9-1.9-4.7 0-1.7 0.7-3.3 1.9-4.6 1.2-1.2 2.9-1.9 4.6-1.9h205.3c1.7 0 3.3 0.7 4.6 1.9 1.2 1.3 1.9 2.9 1.9 4.6 0 1.8-0.7 3.4-1.9 4.7-1.3 1.2-2.9 1.9-4.6 1.9z"/><path class="f" d="m275.4 475.5h-232.1c-1.7 0-3.4-0.7-4.6-1.9-1.2-1.3-1.9-2.9-1.9-4.7 0-1.7 0.7-3.3 1.9-4.6 1.2-1.2 2.9-1.9 4.6-1.9h232.1c1.8 0 3.4 0.7 4.7 1.9 1.2 1.3 1.9 2.9 1.9 4.6 0 1.8-0.7 3.4-1.9 4.7-1.3 1.2-2.9 1.9-4.7 1.9z"/><path class="a" d="m684.1 423h-291.2c-1.8 0-3.6-0.4-5.3-1-1.7-0.7-3.2-1.8-4.5-3-1.2-1.3-2.3-2.9-3-4.5-0.7-1.7-1-3.5-1-5.3v-395.4c0-1.8 0.3-3.6 1-5.3 0.7-1.6 1.8-3.2 3-4.4 1.3-1.3 2.8-2.3 4.5-3 1.7-0.7 3.5-1.1 5.3-1.1h291.2c1.8 0 3.6 0.4 5.3 1.1 1.7 0.7 3.2 1.7 4.5 3 1.3 1.2 2.3 2.8 3 4.4 0.7 1.7 1.1 3.5 1.1 5.3v395.4c0 1.8-0.4 3.6-1.1 5.3-0.7 1.6-1.7 3.2-3 4.5-1.3 1.2-2.8 2.3-4.5 3-1.7 0.6-3.5 1-5.3 1z"/><path fill-rule="evenodd" class="d" d="m684.1 423h-291.2c-1.8 0-3.6-0.4-5.3-1-1.7-0.7-3.2-1.8-4.5-3-1.2-1.3-2.3-2.9-3-4.5-0.7-1.7-1-3.5-1-5.3v-395.4c0-1.8 0.3-3.6 1-5.3 0.7-1.6 1.8-3.2 3-4.4 1.3-1.3 2.8-2.3 4.5-3 1.7-0.7 3.5-1.1 5.3-1.1h291.2c1.8 0 3.6 0.4 5.3 1.1 1.7 0.7 3.2 1.7 4.5 3 1.3 1.2 2.3 2.8 3 4.4 0.7 1.7 1.1 3.5 1.1 5.3v395.4c0 1.8-0.4 3.6-1.1 5.3-0.7 1.6-1.7 3.2-3 4.5-1.3 1.2-2.8 2.3-4.5 3-1.7 0.6-3.5 1-5.3 1zm-291.2-421.4c-1.6 0-3.2 0.3-4.7 1-1.4 0.6-2.8 1.5-3.9 2.6-1.1 1.1-2 2.5-2.7 4-0.6 1.4-0.9 3-0.9 4.6v395.4c0 1.6 0.3 3.2 0.9 4.6 0.7 1.5 1.6 2.9 2.7 4 1.1 1.1 2.5 2 3.9 2.6 1.5 0.7 3.1 1 4.7 1h291.2c1.6 0 3.2-0.3 4.7-1 1.5-0.6 2.8-1.5 4-2.6 1.1-1.1 2-2.5 2.6-4 0.6-1.4 0.9-3 0.9-4.6v-395.4c0-1.6-0.3-3.2-0.9-4.6-0.6-1.5-1.5-2.9-2.6-4-1.2-1.1-2.5-2-4-2.6-1.5-0.7-3.1-1-4.7-1z"/><path class="a" d="m525.5 102.4c0 21.8-13.1 41.6-33.4 49.9-20.2 8.4-43.4 3.8-58.9-11.7-15.5-15.5-20.1-38.7-11.7-58.9 8.3-20.3 28.1-33.4 49.9-33.4 7.1 0 14.2 1.4 20.7 4.1 6.6 2.7 12.6 6.7 17.6 11.7 5 5 9 11 11.7 17.6 2.7 6.5 4.1 13.5 4.1 20.7z"/><path class="b" d="m496.4 111.6c-0.6 34.6-52 34.6-52.6 0 0.6-34.6 52.1-34.6 52.6 0z"/><path class="c" d="m469.1 122.3v-0.9c6.7 0.9 8.2-7.5 1.4-4.4l1.5-11.4 1 0.1-1.3 9.7c7.2-1 4.5 7.9-2.6 6.9z"/><path class="c" d="m477.8 106.6h5.3v1h-5.3z"/><path class="c" d="m461.1 106.6h5.3v1h-5.3z"/><path class="c" d="m478.7 148.4c1-7-7.2-5.6-11.5-5.7q-1 0-2 0.5-1 0.5-1.6 1.3-0.7 0.8-0.9 1.8-0.3 1.1-0.1 2.1-1.2 0.4-2.4 0.9-1.2 0.5-2.4 1.1-1.1 0.7-2.2 1.4-1.1 0.8-2 1.6 4.1 1.5 8.5 2.2 4.3 0.8 8.7 0.8 4.5 0.1 8.8-0.6 4.4-0.6 8.6-2-1-0.9-2.2-1.7-1.1-0.8-2.3-1.5-1.2-0.7-2.5-1.2-1.2-0.6-2.5-1z"/><path class="c" d="m457.8 99.2c4.8-2.9 10.7-0.7 15.8 0.5 9.5 2.9 22.9-0.8 24.1-12.1 1.2-10.6-13.3-16.5-17.9-6l1.3-0.2c-15-22.3-41.1-21.4-40.9 9.2-0.1 1 1.4 1 1.5 0-0.6-18 11.4-30.4 28.3-18.8q1.4 1.1 2.7 2.3 1.4 1.2 2.6 2.5 1.2 1.3 2.4 2.7 1.1 1.4 2.2 2.9c1.7 1.9 2.1-6.6 10.5-4.3 9.3 3.6 6.3 16.9-2 19.8-10.2 5.2-21.3-4.9-31.4 0.2q-0.2 0.1-0.3 0.4-0.1 0.3 0.1 0.6 0.1 0.2 0.4 0.3 0.3 0.1 0.6 0z"/><path fill-rule="evenodd" class="d" d="m471.4 157.9c-28.9 0-53-22.3-55.3-51.2-2.2-28.9 18.1-54.6 46.7-59.1 28.6-4.6 55.9 13.7 62.7 41.8 6.7 28.2-9.3 56.8-36.9 65.8q-2 0.7-4.2 1.2-2.1 0.5-4.3 0.8-2.1 0.4-4.3 0.5-2.2 0.2-4.4 0.2zm0-108.2c-21.2 0-40.4 12.9-48.6 32.5-8.1 19.7-3.6 42.3 11.4 57.4 15.1 15 37.7 19.5 57.4 11.4 19.6-8.2 32.5-27.4 32.5-48.6-0.1-7-1.4-13.8-4.1-20.2-2.6-6.4-6.5-12.2-11.4-17-4.9-4.9-10.7-8.8-17-11.4-6.4-2.7-13.3-4.1-20.2-4.1z"/><path class="f" d="m627.8 102.7h-82.5c-1.7 0-3.3-0.7-4.6-1.9-1.2-1.3-1.9-2.9-1.9-4.6 0-1.8 0.7-3.4 1.9-4.6 1.3-1.3 2.9-2 4.6-2h82.5c1.7 0 3.3 0.7 4.6 2 1.2 1.2 1.9 2.8 1.9 4.6 0 1.7-0.7 3.3-1.9 4.6-1.3 1.2-2.9 1.9-4.6 1.9z"/><path class="f" d="m654.6 124.7h-109.3c-1.7 0-3.3-0.7-4.6-1.9-1.2-1.2-1.9-2.9-1.9-4.6 0-1.8 0.7-3.4 1.9-4.6 1.3-1.3 2.9-2 4.6-2h109.3c1.8 0 3.4 0.7 4.7 2 1.2 1.2 1.9 2.8 1.9 4.6 0 1.7-0.7 3.4-1.9 4.6-1.3 1.2-2.9 1.9-4.7 1.9z"/><path class="f" d="m627.6 209.1h-205.2c-1.7 0-3.4-0.7-4.6-1.9-1.2-1.3-1.9-2.9-1.9-4.6 0-1.8 0.7-3.4 1.9-4.7 1.2-1.2 2.9-1.9 4.6-1.9h205.2c1.8 0 3.4 0.7 4.6 1.9 1.3 1.3 2 2.9 2 4.7 0 1.7-0.7 3.3-2 4.6-1.2 1.2-2.8 1.9-4.6 1.9z"/><path class="f" d="m654.5 231.1h-232.1c-1.7 0-3.4-0.7-4.6-1.9-1.2-1.3-1.9-2.9-1.9-4.6 0-1.8 0.7-3.4 1.9-4.7 1.2-1.2 2.9-1.9 4.6-1.9h232.1c1.8 0 3.4 0.7 4.6 1.9 1.3 1.3 1.9 2.9 1.9 4.7 0 1.7-0.6 3.3-1.9 4.6-1.2 1.2-2.8 1.9-4.6 1.9z"/><path class="f" d="m627.6 281.6h-205.2c-1.7 0-3.4-0.6-4.6-1.9-1.2-1.2-1.9-2.8-1.9-4.6 0-1.7 0.7-3.4 1.9-4.6 1.2-1.2 2.9-1.9 4.6-1.9h205.2c1.8 0 3.4 0.7 4.6 1.9 1.3 1.2 2 2.9 2 4.6 0 1.8-0.7 3.4-2 4.6-1.2 1.3-2.8 1.9-4.6 1.9z"/><path class="f" d="m654.5 303.6h-232.1c-1.7 0.1-3.4-0.6-4.6-1.9-1.2-1.2-1.9-2.8-1.9-4.6 0-1.7 0.7-3.4 1.9-4.6 1.2-1.2 2.9-1.9 4.6-1.9h232.1c1.8 0 3.4 0.7 4.6 1.9 1.3 1.2 1.9 2.9 1.9 4.6 0 1.8-0.6 3.4-1.9 4.6-1.2 1.3-2.8 1.9-4.6 1.9z"/><path class="f" d="m627.6 354.2h-205.2c-1.7 0-3.4-0.7-4.6-1.9-1.2-1.2-1.9-2.9-1.9-4.6 0-1.7 0.7-3.4 1.9-4.6 1.2-1.2 2.9-1.9 4.6-1.9h205.2c1.8 0 3.4 0.7 4.6 1.9 1.3 1.2 2 2.9 2 4.6 0 1.7-0.7 3.4-2 4.6-1.2 1.2-2.8 1.9-4.6 1.9z"/><path class="f" d="m654.5 376.2h-232.1c-1.7 0-3.4-0.7-4.6-1.9-1.2-1.2-1.9-2.9-1.9-4.6 0-1.7 0.7-3.4 1.9-4.6 1.2-1.2 2.9-1.9 4.6-1.9h232.1c1.8 0 3.4 0.7 4.6 1.9 1.3 1.2 1.9 2.9 1.9 4.6 0 1.7-0.6 3.4-1.9 4.6-1.2 1.2-2.8 1.9-4.6 1.9z"/><path class="a" d="m508.4 593h-291.2c-1.8 0-3.6-0.3-5.3-1-1.7-0.7-3.2-1.7-4.5-3-1.3-1.3-2.3-2.8-3-4.5-0.7-1.7-1-3.5-1-5.3v-395.4c0-1.8 0.3-3.6 1-5.2 0.7-1.7 1.7-3.2 3-4.5 1.3-1.3 2.8-2.3 4.5-3 1.7-0.7 3.5-1.1 5.3-1.1h291.2c1.8 0 3.6 0.4 5.3 1.1 1.7 0.7 3.2 1.7 4.5 3 1.3 1.3 2.3 2.8 3 4.5 0.7 1.6 1 3.4 1.1 5.2v395.4c-0.1 1.8-0.4 3.6-1.1 5.3-0.7 1.7-1.7 3.2-3 4.5-1.3 1.3-2.8 2.3-4.5 3-1.7 0.7-3.5 1-5.3 1z"/><path class="a" d="m241.5 271.8q0 5.3 1 10.6 1.1 5.2 3.1 10.1 2.1 5 5 9.4 3 4.4 6.8 8.2 0.6 0.6 1.3 1.2 1 1 2 1.8 1 0.9 2.1 1.7 1.1 0.9 2.2 1.6 1.1 0.8 2.3 1.5 0.8 0.5 1.8 1 1.1 0.7 2.3 1.3 1.2 0.6 2.4 1.1 1.3 0.6 2.5 1.1 1.3 0.4 2.5 0.8 0.9 0.3 1.8 0.6 4 1.1 8.2 1.7 4.1 0.5 8.3 0.4 4.2-0.2 8.3-0.9 4.1-0.8 8.1-2.1 0.3-0.2 0.6-0.3c18.9-6.9 32.5-23.7 35.1-43.7 2.6-20-6.1-39.8-22.6-51.4-16.5-11.6-38.1-13-56-3.7-17.9 9.3-29.1 27.8-29.1 48z"/><path class="c" d="m284.2 298.3q0 1.6-0.3 3.1-0.3 1.5-0.8 3-0.6 1.4-1.4 2.8-0.8 1.3-1.9 2.5c-2.8 3-6.9 5-11.1 4.2-3.8-0.8-6.9-4.1-6.6-8.2q0.1-1.3 0.8-2.5 0.6-1.2 1.7-2 1.1-0.8 2.4-1 1.3-0.3 2.6 0c3.7 1 5.2 6.3 2.1 8.7-0.7 0.6-1.8-0.4-1-1q0.7-0.7 1-1.5 0.3-0.9 0.1-1.9-0.1-0.9-0.7-1.6-0.6-0.8-1.5-1.1-1-0.3-2-0.2-1.1 0.2-2 0.8-0.9 0.6-1.4 1.5-0.5 0.9-0.6 2c-0.2 3.4 2.4 6 5.6 6.6 3.5 0.6 7-1.1 9.3-3.6q1-1.1 1.8-2.3 0.8-1.2 1.3-2.6 0.6-1.4 0.8-2.8 0.3-1.4 0.3-2.9 0-0.3 0.2-0.5 0.2-0.2 0.5-0.2 0.3 0 0.5 0.2 0.2 0.2 0.3 0.5z"/><path class="b" d="m298.6 307.7c-14.6 0-26.4-11.8-26.4-26.3 0-14.6 11.8-26.3 26.4-26.3 14.5 0 26.3 11.7 26.3 26.3 0 14.5-11.8 26.3-26.3 26.3z"/><path class="c" d="m297.2 292.6v-1c1.8 0 3.4-0.2 4.6-1q0.3-0.2 0.5-0.5 0.2-0.2 0.4-0.5 0.1-0.3 0.2-0.6 0.1-0.3 0.1-0.7 0-0.2 0-0.4 0-0.2-0.1-0.3-0.1-0.2-0.2-0.4-0.1-0.2-0.3-0.3-0.3-0.2-0.7-0.3-0.4-0.1-0.8-0.1-0.4 0-0.8 0.1-0.4 0.1-0.7 0.3l-0.8 0.4 1.5-11.4 1 0.1-1.3 9.7q0.4-0.2 0.8-0.2 0.5-0.1 0.9 0 0.4 0.1 0.8 0.2 0.4 0.2 0.8 0.5 0.2 0.2 0.4 0.4 0.2 0.3 0.3 0.6 0.1 0.2 0.2 0.6 0 0.3 0 0.6 0 0.4-0.1 0.8-0.2 0.5-0.4 0.8-0.2 0.4-0.4 0.8-0.3 0.3-0.7 0.6c-1.5 1.1-3.6 1.2-5.2 1.2z"/><path class="c" d="m305.9 276.8h5.3v1h-5.3z"/><path class="c" d="m289.2 276.8h5.3v1h-5.3z"/><path class="c" d="m280.6 323.8q4 1.1 8.2 1.7 4.1 0.5 8.3 0.4 4.2-0.2 8.3-0.9 4.1-0.8 8.1-2.1 0.3-0.2 0.6-0.3-1-0.7-2-1.3-0.9-0.7-2-1.2-1-0.5-2.1-1-1.1-0.4-2.3-0.8 0.1-0.3 0.2-0.5 0-0.3 0-0.6 0-0.3 0-0.6-0.1-0.3-0.2-0.6-0.2-0.7-0.6-1.3-0.5-0.6-1.1-1.1-0.6-0.4-1.3-0.6-0.7-0.3-1.5-0.2h-6.4q-0.7-0.1-1.4 0.2-0.8 0.2-1.4 0.6-0.6 0.5-1 1.1-0.4 0.6-0.7 1.3-0.1 0.3-0.1 0.6 0 0.3 0 0.6 0 0.3 0 0.6 0 0.2 0.1 0.5-1 0.3-1.9 0.7-1 0.4-1.9 0.9-1 0.4-1.9 0.9-0.9 0.6-1.7 1.2-0.7 0.5-1.3 1-0.5 0.4-1 0.8z"/><path class="g" d="m319.2 278.6c0 4.4 2.2 8.1 5 8.7q0.1 0.1 0.2 0.1 0.1 0 0.2 0 0.1 0 0.3 0 0.1 0 0.2 0c3.2 0 5.9-3.9 5.9-8.8q0-1-0.1-1.9-0.2-0.9-0.5-1.8-0.2-0.9-0.7-1.7-0.4-0.9-1-1.6-0.2-0.2-0.4-0.4-0.2-0.2-0.4-0.4-0.2-0.2-0.4-0.3-0.3-0.2-0.5-0.3-0.3-0.1-0.5-0.2-0.2-0.1-0.5-0.2-0.2 0-0.4 0-0.3-0.1-0.5-0.1-0.4 0-0.7 0.1-0.3 0-0.6 0.2-0.4 0.1-0.7 0.2-0.3 0.2-0.5 0.4c-2 1.4-3.4 4.4-3.4 8z"/><path class="g" d="m266.6 278.6c0 3.8 1.6 7 3.8 8.3q0.3 0.1 0.5 0.2 0.3 0.1 0.5 0.2 0.3 0.1 0.5 0.1 0.3 0 0.6 0 0 0 0.1 0 0 0 0.1 0 0.1 0 0.1 0 0.1 0 0.1 0c3.1-0.4 5.5-4.2 5.5-8.8 0-3.7-1.6-6.9-3.8-8.2q-0.2-0.2-0.5-0.3-0.2-0.1-0.5-0.2-0.3-0.1-0.6-0.1-0.3-0.1-0.5-0.1-0.3 0-0.5 0.1-0.3 0-0.5 0-0.3 0.1-0.5 0.2-0.2 0.1-0.4 0.2-0.3 0.1-0.5 0.3-0.3 0.1-0.5 0.3-0.2 0.2-0.4 0.4-0.2 0.2-0.4 0.4-0.5 0.7-1 1.6-0.4 0.8-0.7 1.7-0.3 0.9-0.4 1.8-0.2 0.9-0.1 1.9z"/><path class="g" d="m270.8 286q0.2 0 0.3 0 0.2-0.1 0.3-0.3 0.1-0.1 0.1-0.3 0.1-0.2 0-0.3c-2.9-8.5-1.6-17.9 3.4-25.3 5-7.4 13.2-12.1 22.2-12.6 8.9-0.5 17.6 3.1 23.5 9.9 5.8 6.8 8.2 16 6.3 24.7q0 0.3 0.1 0.6 0.2 0.2 0.5 0.3 0.3 0.1 0.5-0.1 0.3-0.2 0.4-0.5c1.9-9.2-0.6-18.8-6.7-25.9-6.2-7.2-15.3-11-24.7-10.5-9.4 0.6-18 5.5-23.3 13.3-5.3 7.8-6.6 17.6-3.6 26.5q0 0.2 0.1 0.2 0.1 0.1 0.2 0.2 0.1 0.1 0.2 0.1 0.1 0 0.2 0z"/><path class="c" d="m311.8 264.3q0.3 0.6 0.4 1.2 0.2 0.6 0.1 1.2-0.1 0.6-0.4 1.2-0.2 0.5-0.7 1c-1.4 1.6-3.7 1.7-5.7 1.4-2.2-0.3-4.6-1.4-6.8-0.7-1.9 0.6-3.3 2.3-5.3 2.8-1.7 0.4-3.8-0.1-4.5-2-0.3-0.9 1.2-1.3 1.5-0.4 0.4 1.2 2.1 1.2 3.1 0.8 1.6-0.5 2.8-1.8 4.3-2.4q0.7-0.3 1.5-0.4 0.7-0.1 1.4-0.1 0.7 0 1.4 0.1 0.8 0.2 1.5 0.4c1.7 0.4 3.7 1 5.5 0.2 1.3-0.5 2.3-2.3 1.4-3.5-0.6-0.8 0.7-1.5 1.3-0.8z"/><path fill-rule="evenodd" class="d" d="m295.6 327.4q-2 0-3.9-0.2-2-0.1-3.9-0.4-1.9-0.3-3.8-0.7-1.9-0.4-3.8-0.9-0.9-0.3-1.8-0.6-1.3-0.4-2.6-0.9-1.3-0.5-2.6-1-1.2-0.6-2.4-1.2-1.3-0.6-2.5-1.3-0.9-0.5-1.8-1-1.2-0.8-2.3-1.6-1.2-0.7-2.3-1.6-1.1-0.8-2.1-1.7-1.1-0.9-2.1-1.9-0.7-0.6-1.3-1.2c-17.5-17.5-21.4-44.4-9.6-66.1 11.9-21.6 36.6-32.9 60.8-27.5 24.1 5.3 41.8 25.9 43.4 50.6 1.6 24.6-13.2 47.4-36.4 55.8q-0.3 0.1-0.6 0.2-2.3 0.8-4.5 1.4-2.3 0.6-4.6 1-2.3 0.4-4.6 0.6-2.4 0.2-4.7 0.2zm0-108.2c-10.4 0-20.6 3.1-29.3 8.9-8.6 5.7-15.4 14-19.3 23.6-4 9.6-5.1 20.2-3 30.4 2 10.2 7.1 19.6 14.4 27q0.6 0.6 1.3 1.2 1 0.9 2 1.7 1 0.9 2 1.7 1.1 0.8 2.1 1.5 1.1 0.7 2.2 1.4 0.9 0.6 1.8 1.1 1.1 0.6 2.3 1.2 1.1 0.6 2.3 1.1 1.2 0.5 2.4 1 1.2 0.4 2.5 0.8 0.9 0.3 1.7 0.6 3.9 1.1 8 1.6 4 0.5 8.1 0.4 4-0.1 8-0.9 4-0.7 7.9-2l0.6-0.3c11.6-4.2 21.4-12.4 27.5-23.1 6.2-10.7 8.4-23.3 6.3-35.4-2.2-12.2-8.5-23.3-18-31.2-9.5-8-21.5-12.3-33.8-12.3z"/><path fill-rule="evenodd" class="g" d="m508.4 593h-291.2c-1.8 0-3.6-0.3-5.3-1-1.7-0.7-3.2-1.7-4.5-3-1.3-1.3-2.3-2.8-3-4.5-0.7-1.7-1-3.5-1-5.3v-395.4c0-1.8 0.3-3.6 1-5.2 0.7-1.7 1.7-3.2 3-4.5 1.3-1.3 2.8-2.3 4.5-3 1.7-0.7 3.5-1.1 5.3-1.1h291.2c1.8 0 3.6 0.4 5.3 1.1 1.7 0.7 3.2 1.7 4.5 3 1.3 1.3 2.3 2.8 3 4.5 0.7 1.6 1 3.4 1.1 5.2v395.4c-0.1 1.8-0.4 3.6-1.1 5.3-0.7 1.7-1.7 3.2-3 4.5-1.3 1.3-2.8 2.3-4.5 3-1.7 0.7-3.5 1-5.3 1zm-291.2-421.4c-1.6 0-3.2 0.4-4.7 1-1.4 0.6-2.8 1.5-3.9 2.6-1.2 1.2-2.1 2.5-2.7 4-0.6 1.5-0.9 3-0.9 4.6v395.4c0 1.6 0.3 3.2 0.9 4.7 0.6 1.4 1.5 2.8 2.7 3.9 1.1 1.2 2.5 2.1 3.9 2.7 1.5 0.6 3.1 0.9 4.7 0.9h291.2c1.6 0 3.2-0.3 4.7-0.9 1.5-0.6 2.8-1.5 3.9-2.7 1.2-1.1 2.1-2.5 2.7-3.9 0.6-1.5 0.9-3.1 0.9-4.7v-395.4c0-1.6-0.3-3.1-0.9-4.6-0.6-1.5-1.5-2.8-2.7-4-1.1-1.1-2.4-2-3.9-2.6-1.5-0.6-3.1-1-4.7-1z"/><path class="b" d="m452 272.7h-82.4c-1.7 0-3.3-0.7-4.6-1.9-1.2-1.2-1.9-2.9-1.9-4.6 0-1.8 0.7-3.4 1.9-4.6 1.3-1.3 2.9-1.9 4.6-1.9h82.4c1.8 0 3.4 0.6 4.7 1.9 1.2 1.2 1.9 2.8 1.9 4.6 0 1.7-0.7 3.4-1.9 4.6-1.3 1.2-2.9 1.9-4.7 1.9z"/><path class="b" d="m478.9 294.7h-109.3c-1.7 0-3.3-0.7-4.6-1.9-1.2-1.2-1.9-2.9-1.9-4.6 0-1.7 0.7-3.4 1.9-4.6 1.3-1.3 2.9-1.9 4.6-1.9h109.3c1.8 0 3.4 0.6 4.6 1.9 1.3 1.2 2 2.9 2 4.6 0 1.7-0.7 3.4-2 4.6-1.2 1.2-2.8 1.9-4.6 1.9z"/><path class="d" d="m451.9 379.1h-205.2c-1.7 0-3.4-0.7-4.6-1.9-1.2-1.2-1.9-2.9-1.9-4.6 0-1.8 0.7-3.4 1.9-4.6 1.2-1.3 2.9-1.9 4.6-1.9h205.2c1.8 0 3.4 0.6 4.6 1.9 1.3 1.2 1.9 2.8 1.9 4.6 0 1.7-0.6 3.4-1.9 4.6-1.2 1.2-2.8 1.9-4.6 1.9z"/><path class="d" d="m478.8 401.1h-232.1c-1.7 0-3.4-0.7-4.6-1.9-1.2-1.2-1.9-2.9-1.9-4.6 0-1.8 0.7-3.4 1.9-4.6 1.2-1.3 2.9-1.9 4.6-1.9h232.1c1.7 0 3.4 0.6 4.6 1.9 1.2 1.2 1.9 2.8 1.9 4.6 0 1.7-0.7 3.4-1.9 4.6-1.2 1.2-2.9 1.9-4.6 1.9z"/><path class="d" d="m451.9 451.7h-205.2c-1.7 0-3.4-0.7-4.6-2-1.2-1.2-1.9-2.8-1.9-4.6 0-1.7 0.7-3.3 1.9-4.6 1.2-1.2 2.9-1.9 4.6-1.9h205.2c1.8 0 3.4 0.7 4.6 1.9 1.3 1.3 1.9 2.9 1.9 4.6 0 1.8-0.6 3.4-1.9 4.7-1.2 1.2-2.8 1.9-4.6 1.9z"/><path class="d" d="m478.8 473.7h-232.1c-1.7 0-3.4-0.7-4.6-1.9-1.2-1.3-1.9-2.9-1.9-4.7 0-1.7 0.7-3.3 1.9-4.6 1.2-1.2 2.9-1.9 4.6-1.9h232.1c1.7 0 3.4 0.7 4.6 1.9 1.2 1.3 1.9 2.9 1.9 4.6 0 1.8-0.7 3.4-1.9 4.7-1.2 1.2-2.9 1.9-4.6 1.9z"/><path class="d" d="m451.9 524.2h-205.2c-1.7 0-3.4-0.7-4.6-1.9-1.2-1.2-1.9-2.9-1.9-4.6 0-1.7 0.7-3.4 1.9-4.6 1.2-1.2 2.9-1.9 4.6-1.9h205.2c1.8 0 3.4 0.7 4.6 1.9 1.3 1.2 1.9 2.9 1.9 4.6 0 1.7-0.6 3.4-1.9 4.6-1.2 1.2-2.8 1.9-4.6 1.9z"/><path class="d" d="m478.8 546.2h-232.1c-1.7 0-3.4-0.6-4.6-1.9-1.2-1.2-1.9-2.9-1.9-4.6 0-1.7 0.7-3.4 1.9-4.6 1.2-1.2 2.9-1.9 4.6-1.9h232.1c1.7 0 3.4 0.7 4.6 1.9 1.2 1.2 1.9 2.9 1.9 4.6 0 1.7-0.7 3.4-1.9 4.6-1.2 1.3-2.9 1.9-4.6 1.9z"/><path class="b" d="m505 503c-17 0-33.4 6.7-45.4 18.8-12.1 12-18.9 28.4-18.9 45.4 0 17.1 6.8 33.4 18.9 45.5 12 12 28.4 18.8 45.4 18.8 17.1-0.1 33.4-6.8 45.4-18.9 12-12 18.8-28.4 18.8-45.4 0-17-6.8-33.3-18.8-45.3-12-12.1-28.3-18.9-45.4-18.9z"/><path class="a" d="m498.9 593.9q-0.6 0-1.2-0.1-0.6-0.1-1.2-0.3-0.6-0.2-1.2-0.5-0.5-0.3-1-0.7h-0.1l-17.7-13.5c-1.6-1.3-2.7-3.2-3-5.2-0.3-2.1 0.3-4.2 1.6-5.8 1.2-1.7 3.1-2.8 5.2-3 2-0.3 4.1 0.3 5.8 1.5l11.4 8.8 27-35.3q1-1.2 2.3-2 1.4-0.8 2.9-1 1.6-0.2 3.1 0.2 1.5 0.4 2.7 1.4l-0.1 0.2 0.1-0.2q1.3 0.9 2.1 2.3 0.7 1.3 0.9 2.9 0.3 1.5-0.1 3-0.5 1.5-1.4 2.8l-31.8 41.4q-0.6 0.8-1.3 1.3-0.7 0.6-1.5 1-0.8 0.4-1.7 0.6-0.8 0.2-1.7 0.2z"/></svg>