<svg version="1.2" xmlns="http://www.w3.org/2000/svg" viewBox="0 0 743 713" width="743" height="713"><style>.a{fill:#3f3d56}.b{fill:#fff}.c{fill:#e6e6e6}.d{fill:#d71a21}.e{fill:#feb8b8}.f{fill:#2f2e41}.g{fill:#ccc}</style><path class="a" d="m433.8 168.9h-3.9v-107c0-8.1-1.6-16.2-4.7-23.7-3.1-7.5-7.7-14.3-13.4-20.1-5.8-5.7-12.6-10.3-20.1-13.4-7.5-3.1-15.6-4.7-23.7-4.7h-226.7c-8.1 0-16.1 1.6-23.6 4.7-7.6 3.1-14.4 7.7-20.1 13.4-5.8 5.8-10.3 12.6-13.5 20.1-3.1 7.5-4.7 15.6-4.7 23.7v586.9c0 8.1 1.6 16.2 4.7 23.7 3.2 7.5 7.7 14.3 13.5 20.1 5.7 5.7 12.5 10.3 20.1 13.4 7.5 3.1 15.5 4.7 23.6 4.7h226.7c8.1 0 16.2-1.6 23.7-4.7 7.5-3.1 14.3-7.7 20.1-13.4 5.7-5.8 10.3-12.6 13.4-20.1 3.1-7.5 4.7-15.6 4.7-23.7v-403.8h3.9z"/><path class="b" d="m417.3 57.8v595.1c0 6.2-1.2 12.3-3.6 18-2.3 5.7-5.8 10.9-10.2 15.2-4.3 4.4-9.5 7.9-15.2 10.2-5.7 2.4-11.8 3.6-18 3.6h-231.3c-6.1 0-12.2-1.2-17.9-3.6-5.7-2.3-10.9-5.8-15.3-10.2-4.3-4.3-7.8-9.5-10.1-15.2-2.4-5.7-3.6-11.8-3.6-18v-595.1c0-6.2 1.2-12.3 3.6-18 2.3-5.7 5.8-10.9 10.1-15.2 4.4-4.4 9.6-7.9 15.3-10.2 5.7-2.4 11.8-3.6 17.9-3.6h28.1c-1.4 3.4-1.9 7.1-1.5 10.7 0.3 3.7 1.6 7.1 3.7 10.2 2 3 4.7 5.5 8 7.2 3.2 1.7 6.8 2.7 10.5 2.7h131.8c3.7 0 7.3-1 10.5-2.7 3.2-1.7 6-4.2 8-7.2 2.1-3.1 3.3-6.5 3.7-10.2 0.4-3.6-0.1-7.3-1.5-10.7h30c6.2 0 12.3 1.2 18 3.6 5.7 2.4 10.9 5.8 15.2 10.2 4.4 4.3 7.8 9.5 10.2 15.2 2.4 5.7 3.6 11.8 3.6 18z"/><path fill-rule="evenodd" class="c" d="m257.2 295.9c-13.1 0-26-2.6-38-7.6-12.1-5-23-12.3-32.3-21.5-9.2-9.2-16.5-20.1-21.5-32.2-5-12-7.6-24.9-7.6-38v-0.1q0-0.3 0-0.6c0.3-54.4 44.9-98.7 99.4-98.7 26.3 0 51.6 10.5 70.2 29.1 18.6 18.6 29.1 43.9 29.1 70.2 0 26.4-10.5 51.6-29.1 70.3-18.6 18.6-43.9 29.1-70.2 29.1q0 0 0 0zm0-196.6c-12.8 0-25.3 2.5-37.1 7.4-11.7 4.9-22.4 12-31.4 20.9-9.1 9-16.2 19.6-21.2 31.4-4.9 11.7-7.5 24.3-7.6 37q0 0.3 0 0.5c0 39.4 23.7 74.8 60 89.9 36.4 15.1 78.2 6.7 106-21.1 27.9-27.8 36.2-69.6 21.1-106-15-36.3-50.5-60-89.8-60z"/><path class="a" d="m213.7 195.7c-11.8 0-21.3-9.5-21.3-21.3 0-11.8 9.5-21.4 21.3-21.4 11.8 0 21.3 9.6 21.3 21.4 0 11.8-9.5 21.3-21.3 21.3z"/><path class="d" d="m280.6 240.1h-104.6q-0.1 0-0.1 0-0.1 0-0.1 0-0.1 0-0.1 0-0.1-0.1-0.1-0.1l49.5-85.6c0.3-0.6 0.7-1 1.2-1.3 0.6-0.3 1.2-0.5 1.8-0.5 0.6 0 1.2 0.2 1.7 0.5 0.5 0.3 1 0.7 1.3 1.3l33.2 57.5 1.6 2.7z"/><path class="d" d="m338.8 240.1h-90.5l17.6-25.5 1.2-1.8 22.9-33.2q0.6-0.8 1.5-1.2 0.8-0.5 1.8-0.5 1-0.1 1.9 0.2 0.9 0.4 1.6 1.1 0.1 0 0.1 0.1 0.1 0 0.1 0.1 0.1 0 0.1 0.1 0 0 0.1 0.1z"/><path fill-rule="evenodd" class="c" d="m359.9 400.3h-205.6q-0.7 0-1.4-0.3-0.7-0.3-1.2-0.8-0.6-0.5-0.9-1.2-0.3-0.7-0.3-1.5v-51q0-0.7 0.3-1.4 0.3-0.7 0.9-1.3 0.5-0.5 1.2-0.8 0.7-0.3 1.4-0.3h205.6q0.7 0 1.4 0.3 0.7 0.3 1.3 0.8 0.5 0.6 0.8 1.3 0.3 0.7 0.3 1.4v51q0 0.8-0.3 1.5-0.3 0.7-0.8 1.2-0.6 0.5-1.3 0.8-0.7 0.3-1.4 0.3zm-205.6-57.1q-0.4 0-0.8 0.2-0.4 0.2-0.8 0.5-0.3 0.3-0.5 0.8-0.1 0.4-0.1 0.8v51q0 0.5 0.1 0.9 0.2 0.4 0.5 0.7 0.4 0.3 0.8 0.5 0.4 0.2 0.8 0.2h205.6q0.4 0 0.9-0.2 0.4-0.2 0.7-0.5 0.3-0.3 0.5-0.7 0.2-0.4 0.2-0.9v-51q0-0.4-0.2-0.8-0.2-0.5-0.5-0.8-0.3-0.3-0.7-0.5-0.5-0.2-0.9-0.2z"/><path class="d" d="m181 387c-8.9 0-16-7.1-16-16 0-8.8 7.1-16 16-16 8.8 0 16 7.2 16 16 0 8.9-7.2 16-16 16z"/><path class="c" d="m217.9 360.4c-0.7 0-1.4 0.2-1.9 0.7-0.5 0.5-0.8 1.2-0.8 1.9 0 0.7 0.3 1.4 0.8 1.9 0.5 0.5 1.2 0.8 1.9 0.8h125.6c0.7 0 1.4-0.2 1.9-0.7 0.6-0.5 0.9-1.2 0.9-1.9 0-0.7-0.3-1.4-0.8-1.9-0.5-0.6-1.2-0.8-1.9-0.8 0 0-125.7 0-125.7 0z"/><path class="c" d="m217.9 376.3c-0.7 0-1.4 0.3-1.9 0.8-0.5 0.5-0.8 1.2-0.8 1.9 0 0.7 0.3 1.4 0.8 1.9 0.5 0.5 1.2 0.8 1.9 0.8h125.6c0.7 0 1.4-0.3 1.9-0.8 0.6-0.4 0.9-1.1 0.9-1.8 0-0.8-0.3-1.5-0.8-2-0.5-0.5-1.2-0.8-1.9-0.8 0 0-125.7 0-125.7 0z"/><path fill-rule="evenodd" class="c" d="m359.9 485.6h-205.6q-0.7 0-1.4-0.3-0.7-0.3-1.2-0.8-0.6-0.6-0.9-1.3-0.3-0.7-0.3-1.4v-51q0-0.8 0.3-1.5 0.3-0.7 0.9-1.2 0.5-0.5 1.2-0.8 0.7-0.3 1.4-0.3h205.6q0.7 0 1.4 0.3 0.7 0.3 1.3 0.8 0.5 0.5 0.8 1.2 0.3 0.7 0.3 1.5v51q0 0.7-0.3 1.4-0.3 0.7-0.8 1.3-0.6 0.5-1.3 0.8-0.7 0.3-1.4 0.3zm-205.6-57.1q-0.4 0-0.8 0.2-0.4 0.2-0.8 0.5-0.3 0.3-0.5 0.7-0.1 0.4-0.1 0.9v51q0 0.4 0.1 0.8 0.2 0.5 0.5 0.8 0.4 0.3 0.8 0.5 0.4 0.2 0.8 0.2h205.6q0.4 0 0.9-0.2 0.4-0.2 0.7-0.5 0.3-0.3 0.5-0.8 0.2-0.4 0.2-0.8v-51q0-0.5-0.2-0.9-0.2-0.4-0.5-0.7-0.3-0.3-0.7-0.5-0.5-0.2-0.9-0.2z"/><path class="d" d="m181 472.3c-8.9 0-16-7.2-16-16 0-8.9 7.1-16 16-16 8.8 0 16 7.1 16 16 0 8.8-7.2 16-16 16z"/><path class="c" d="m217.9 445.6c-0.7 0-1.4 0.3-1.9 0.8-0.5 0.5-0.8 1.2-0.8 1.9 0 0.7 0.3 1.4 0.8 1.9 0.5 0.5 1.2 0.7 1.9 0.7h125.6c0.7 0 1.4-0.2 1.9-0.7 0.5-0.5 0.8-1.2 0.8-1.9 0-0.7-0.3-1.3-0.8-1.9-0.4-0.5-1.1-0.8-1.8-0.8 0 0-125.7 0-125.7 0z"/><path class="c" d="m217.9 461.6c-0.7 0-1.4 0.3-1.9 0.8-0.5 0.5-0.8 1.2-0.8 1.9 0 0.7 0.3 1.4 0.8 1.9 0.5 0.5 1.2 0.7 1.9 0.7h125.6c0.7 0 1.4-0.2 1.9-0.7 0.5-0.5 0.8-1.2 0.8-1.9 0-0.7-0.3-1.4-0.8-1.9-0.4-0.5-1.1-0.8-1.8-0.8 0 0-125.7 0-125.7 0z"/><path fill-rule="evenodd" class="c" d="m359.9 570.8h-205.6q-0.7 0-1.4-0.3-0.7-0.2-1.2-0.8-0.6-0.5-0.9-1.2-0.3-0.7-0.3-1.5v-51q0-0.7 0.3-1.4 0.3-0.7 0.9-1.2 0.5-0.6 1.2-0.9 0.7-0.3 1.4-0.3h205.6q0.7 0 1.4 0.3 0.7 0.3 1.3 0.9 0.5 0.5 0.8 1.2 0.3 0.7 0.3 1.4v51q0 0.8-0.3 1.5-0.3 0.7-0.8 1.2-0.6 0.6-1.3 0.8-0.7 0.3-1.4 0.3zm-205.6-57q-0.4 0-0.8 0.1-0.4 0.2-0.8 0.5-0.3 0.4-0.5 0.8-0.1 0.4-0.1 0.8v51q0 0.5 0.1 0.9 0.2 0.4 0.5 0.7 0.4 0.4 0.8 0.5 0.4 0.2 0.8 0.2h205.6q0.4 0 0.9-0.2 0.4-0.1 0.7-0.5 0.3-0.3 0.5-0.7 0.2-0.4 0.2-0.9v-51q0-0.4-0.2-0.8-0.2-0.4-0.5-0.8-0.3-0.3-0.7-0.5-0.5-0.1-0.9-0.1z"/><path class="d" d="m181 557.5c-8.9 0-16-7.1-16-16 0-8.8 7.1-15.9 16-15.9 8.8 0 16 7.1 16 15.9 0 8.9-7.2 16-16 16z"/><path class="c" d="m217.9 530.9c-0.7 0-1.4 0.3-1.9 0.8-0.5 0.5-0.8 1.1-0.8 1.8 0 0.8 0.3 1.4 0.8 1.9 0.5 0.5 1.2 0.8 1.9 0.8h125.6c0.7 0 1.4-0.2 1.9-0.7 0.6-0.5 0.9-1.2 0.9-1.9 0-0.7-0.3-1.4-0.8-1.9-0.5-0.5-1.2-0.8-1.9-0.8 0 0-125.7 0-125.7 0z"/><path class="c" d="m217.9 546.9c-0.7 0-1.4 0.2-1.9 0.7-0.5 0.5-0.8 1.2-0.8 1.9 0 0.7 0.3 1.4 0.8 1.9 0.5 0.5 1.2 0.8 1.9 0.8h125.6c0.7 0 1.4-0.2 1.9-0.7 0.6-0.5 0.9-1.2 0.9-1.9 0-0.7-0.3-1.4-0.8-1.9-0.5-0.6-1.2-0.8-1.9-0.8 0 0-125.7 0-125.7 0z"/><path class="e" d="m525.3 699.2h-12.5l-5.9-48h18.4z"/><path class="f" d="m528.4 711.3h-40.1v-0.5c0-2.1 0.4-4.1 1.2-6 0.8-1.9 1.9-3.6 3.4-5.1 1.4-1.4 3.1-2.6 5-3.4 1.9-0.8 4-1.2 6-1.2h24.5z"/><path class="e" d="m680 691.1l-12.2 2.8-16.7-45.4 17.8-4.2z"/><path class="f" d="m685.8 702.1l-39.1 9.2-0.1-0.5c-0.5-2-0.5-4.1-0.2-6.1 0.3-2 1.1-4 2.1-5.7 1.1-1.8 2.5-3.3 4.2-4.5 1.7-1.2 3.6-2.1 5.6-2.5l23.8-5.6z"/><path class="f" d="m522.7 496.6c0-2.5 0.8-61.6 17-83.9l0.2-0.3 56.4 7.8-1.2 12.4c2.5 2.4 22 22.8 27.6 71.1l59.9 160.8-27.8 2.6-82.5-175.6-43.6 190.9h-27.6z"/><path class="g" d="m533.1 414.9l5.5-29c-1.1-1.4-5.9-8.1-4.8-15.9 0.7-5.1 3.7-9.6 9-13.3l14.3-33.3 0.2-0.2c1-0.5 23.8-13.7 36.2-1.3 0.3 0.3 30.8 24.5 18.6 57.2l-15.2 45.5z"/><path class="e" d="m513.9 454.1c1.5-0.2 2.9-0.7 4.2-1.5 1.2-0.8 2.3-1.8 3.2-3.1 0.8-1.2 1.3-2.6 1.5-4.1 0.3-1.5 0.1-3-0.3-4.5l29.5-21.2-17.6-6.7-25.4 21.2c-2.3 0.9-4.3 2.6-5.4 4.8-1.2 2.2-1.5 4.8-0.9 7.3 0.6 2.4 2 4.5 4.1 6 2.1 1.4 4.6 2.1 7.1 1.8z"/><path class="g" d="m519.3 419.6l45.1-35.5-13.4-45.8q-0.5-1.6-0.6-3.3-0.2-1.7 0.1-3.3 0.2-1.7 0.7-3.3 0.6-1.6 1.4-3.1 0.8-1.4 1.9-2.5 1.1-1.2 2.4-2.1 1.3-1 2.7-1.6 1.5-0.7 3-1c7.7-1.6 14.7 2.7 20.8 12.9l0.1 0.1c1 2.4 24.5 60.5 6.5 72.9-17.5 12.1-58.2 29.8-58.6 30l-0.5 0.2z"/><path class="e" d="m579.2 309.9c-15.1 0-27.3-12.3-27.3-27.4 0-15.1 12.2-27.3 27.3-27.3 15.1 0 27.3 12.2 27.3 27.3 0 15.1-12.2 27.4-27.3 27.4z"/><path class="f" d="m622 272.8c-13.3 0-24.1-10.8-24.1-24.2 0-13.3 10.8-24.1 24.1-24.1 13.4 0 24.2 10.8 24.2 24.1 0 13.4-10.8 24.2-24.2 24.2z"/><path class="f" d="m642.9 268.6c-3.2 2.3-6.8 3.8-10.6 4.4-3.8 0.5-7.7 0.2-11.4-1.1-3.6-1.2-6.9-3.3-9.6-6.1-2.7-2.8-4.6-6.1-5.7-9.8 0.8 6.7 4.4 12.7 9.9 16.6 5.5 3.9 12.4 5.4 19 4 6.6-1.4 12.3-5.5 15.8-11.3 3.4-5.8 4.3-12.8 2.4-19.2q0.4 3.2-0.1 6.4-0.4 3.2-1.7 6.2-1.3 3-3.4 5.5-2 2.5-4.6 4.4z"/><path class="f" d="m547.5 268.7c4.2-7.6 5.8-10.7 11.3-15.3 4.8-4.1 10.7-5.3 15.5-1.4 11.9-5.2 25.9-1.8 34 8.4 8.1 10.2 8.3 24.5 0.6 35-7.8 10.5-21.6 14.4-33.7 9.6-12.1-4.8-19.5-17.1-18-30-4.1-0.6-5.5-5.7-9.7-6.3z"/><path class="c" d="m740.5 712.6h-738.6c-1 0-1.9-0.5-1.9-1.1 0-0.5 0.9-1 1.9-1h738.6c1 0 1.9 0.5 1.9 1 0 0.6-0.8 1.1-1.9 1.1z"/></svg>