<svg version="1.2" xmlns="http://www.w3.org/2000/svg" viewBox="0 0 850 605" width="850" height="605"><style>.a{fill:#f2f2f2}.b{fill:#3f3d56}.c{fill:#e6e6e6}.d{fill:#fff}.e{fill:#d71a21}.f{fill:#ffb8b8}.g{fill:#2f2e41}.h{fill:#ccc}</style><path class="a" d="m845.3 562.2q-0.1 0.2-0.2 0.3-0.1 0.2-0.3 0.3-0.2 0.1-0.4 0.1-0.2 0-0.4-0.1l-794.7-295.7q-0.4-0.2-0.6-0.6-0.2-0.3 0-0.7 0.1-0.4 0.5-0.6 0.4-0.1 0.8 0l794.7 295.7q0.2 0.1 0.4 0.2 0.1 0.2 0.2 0.4 0.1 0.1 0.1 0.3 0 0.2-0.1 0.4z"/><path fill-rule="evenodd" class="b" d="m443.4 4.3c6.8 2.8 13 6.9 18.2 12.1 5.2 5.2 9.3 11.4 12.1 18.2 2.8 6.8 4.3 14.1 4.3 21.4v490.9c0 7.3-1.5 14.6-4.3 21.4-2.8 6.8-6.9 13-12.1 18.2-5.2 5.2-11.4 9.3-18.2 12.1-6.8 2.8-14.1 4.3-21.4 4.3h-189.4c-7.4 0-14.7-1.5-21.5-4.3-6.8-2.8-12.9-6.9-18.1-12.1-5.2-5.2-9.4-11.4-12.2-18.2-2.8-6.8-4.2-14.1-4.3-21.4v-347.6q-0.5 0.2-1.2 0.1-0.6-0.1-1-0.5-0.5-0.4-0.8-0.9-0.3-0.6-0.2-1.2v-32.9q-0.1-0.6 0.2-1.2 0.3-0.5 0.8-0.9 0.4-0.4 1-0.5 0.7-0.1 1.2 0v-12q-0.5 0.2-1.2 0.1-0.6-0.2-1-0.5-0.5-0.4-0.8-1-0.3-0.5-0.2-1.1v-32.9q-0.1-0.6 0.2-1.2 0.3-0.6 0.8-0.9 0.4-0.4 1-0.5 0.7-0.1 1.2 0v-19.9q-0.5 0.2-1.2 0-0.6-0.1-1-0.5-0.5-0.3-0.8-0.9-0.3-0.5-0.2-1.1v-13.2q-0.1-0.6 0.2-1.2 0.3-0.5 0.8-0.9 0.4-0.4 1-0.5 0.7-0.1 1.2 0.1v-17.2c0.1-7.3 1.5-14.6 4.3-21.4 2.8-6.8 7-13 12.2-18.2 5.2-5.2 11.3-9.3 18.1-12.1 6.8-2.8 14.1-4.3 21.5-4.3h189.4c7.3 0 14.6 1.5 21.4 4.3zm22.7 51.7c0-5.8-1.1-11.5-3.3-16.9-2.3-5.3-5.5-10.2-9.6-14.3-4.1-4.1-9-7.4-14.3-9.6-5.4-2.2-11.1-3.3-16.9-3.4h-189.4c-5.8 0.1-11.6 1.2-16.9 3.4-5.4 2.2-10.3 5.5-14.4 9.6-4.1 4.1-7.3 9-9.5 14.3-2.3 5.4-3.4 11.1-3.4 16.9v490.9c0 5.8 1.1 11.5 3.4 16.9 2.2 5.3 5.4 10.2 9.5 14.3 4.1 4.1 9 7.3 14.4 9.6 5.3 2.2 11.1 3.3 16.9 3.3h189.4c5.8 0 11.5-1.1 16.9-3.3 5.3-2.3 10.2-5.5 14.3-9.6 4.1-4.1 7.3-9 9.6-14.3 2.2-5.4 3.3-11.1 3.3-16.9z"/><path class="c" d="m422 597.6h-189.4c-6.7 0-13.3-1.3-19.4-3.9-6.2-2.5-11.8-6.2-16.5-11-4.7-4.7-8.5-10.3-11-16.4-2.6-6.2-3.9-12.8-3.9-19.4v-490.9c0-6.6 1.3-13.2 3.9-19.4 2.5-6.1 6.3-11.7 11-16.4 4.7-4.8 10.3-8.5 16.5-11.1 6.1-2.5 12.7-3.8 19.4-3.8h189.4c6.6 0 13.2 1.3 19.4 3.8 6.1 2.6 11.7 6.3 16.4 11.1 4.7 4.7 8.5 10.3 11 16.4 2.6 6.2 3.9 12.8 3.9 19.4v490.9c0 6.6-1.3 13.2-3.9 19.4-2.5 6.1-6.3 11.7-11 16.4-4.7 4.8-10.3 8.5-16.4 11-6.2 2.6-12.8 3.9-19.4 3.9z"/><path class="d" d="m426.6 589.7h-198.7c-4.5 0-9-0.9-13.1-2.6-4.2-1.7-7.9-4.2-11.1-7.4-3.2-3.2-5.7-7-7.4-11.1-1.8-4.2-2.6-8.6-2.6-13.1v-508.1c0-4.5 0.8-8.9 2.6-13.1 1.7-4.1 4.2-7.9 7.4-11.1 3.2-3.2 6.9-5.7 11.1-7.4 4.1-1.7 8.6-2.6 13.1-2.6h25.9q1.1 0 2.2 0.4 1 0.4 1.8 1.2 0.8 0.8 1.2 1.9 0.5 1 0.5 2.1c0 2.2 0.4 4.4 1.2 6.4 0.9 2 2.1 3.9 3.7 5.4 1.5 1.6 3.4 2.8 5.4 3.7 2 0.8 4.2 1.2 6.4 1.2h99.5c2.2 0 4.4-0.4 6.4-1.2 2-0.9 3.9-2.1 5.4-3.7 1.6-1.5 2.8-3.4 3.6-5.4 0.9-2 1.3-4.2 1.3-6.4q0-1.1 0.5-2.1 0.4-1.1 1.2-1.9 0.8-0.8 1.8-1.2 1.1-0.4 2.2-0.4h28.5c4.5 0 9 0.9 13.1 2.6 4.2 1.7 8 4.2 11.1 7.4 3.2 3.2 5.7 7 7.5 11.1 1.7 4.2 2.6 8.6 2.6 13.1v508.1c0 4.5-0.9 8.9-2.6 13.1-1.8 4.1-4.3 7.9-7.5 11.1-3.1 3.2-6.9 5.7-11.1 7.4-4.1 1.7-8.6 2.6-13.1 2.6z"/><path class="d" d="m335.8 24.7h-23.7c-0.7 0-1.3-0.3-1.8-0.8-0.5-0.5-0.8-1.2-0.8-1.9 0-0.6 0.3-1.3 0.8-1.8 0.5-0.5 1.1-0.8 1.8-0.8h23.7c0.7 0 1.4 0.3 1.9 0.8 0.5 0.5 0.8 1.2 0.8 1.8 0 0.7-0.3 1.4-0.8 1.9-0.5 0.5-1.2 0.8-1.9 0.8z"/><path class="d" d="m352.3 24c-0.8 0-1.3-0.6-1.3-1.3 0-0.7 0.5-1.3 1.3-1.3 0.7 0 1.3 0.6 1.3 1.3 0 0.7-0.6 1.3-1.3 1.3z"/><path class="c" d="m187 116h280.3v3h-280.3z"/><path class="c" d="m187 176h280.3v3h-280.3z"/><path class="c" d="m187 300h280.3v3h-280.3z"/><path class="c" d="m187 424h280.3v3h-280.3z"/><path class="c" d="m187 521h280.3v3h-280.3z"/><path class="c" d="m387.5 117.5h3v184h-3z"/><path class="c" d="m247.2 301.4h3v221.1h-3z"/><path class="c" d="m248.7 362.1h212.2v3h-212.2z"/><path class="c" d="m387.9 522.5h3v67.2h-3z"/><path class="c" d="m193.2 239.2h195.3v3h-195.3z"/><path class="c" d="m231.2 12.4l2.8-1.1 44.2 105.6-2.8 1.2z"/><path class="c" d="m367.1 35.5h3v82h-3z"/><path class="e" d="m447.5 163c0 26.9-41.6 89.5-53.7 107.2q-0.6 0.9-1.4 1.3-0.9 0.5-1.9 0.5-1 0-1.9-0.5-0.8-0.4-1.4-1.3c-12.2-17.7-53.7-80.3-53.7-107.2 0-15.1 6-29.6 16.7-40.3 10.7-10.7 25.2-16.7 40.3-16.7 15.1 0 29.6 6 40.3 16.7 10.7 10.7 16.7 25.2 16.7 40.3z"/><path class="d" d="m390.5 188c-16 0-29-13-29-29 0-16 13-29 29-29 16 0 29 13 29 29 0 16-13 29-29 29z"/><path class="c" d="m278.8 521.8l109.8-219.4 2.7 1.3-109.9 219.4z"/><path class="f" d="m546.8 350.6c1.3 0.7 2.7 1.1 4.2 1.2 1.4 0.1 2.9-0.1 4.3-0.7 1.3-0.5 2.5-1.4 3.6-2.4 1-1.1 1.7-2.4 2.2-3.8l35.7-0.6-10.5-15.3-32.3 2.9c-2.4-0.6-4.9-0.3-7.1 0.8-2.2 1.1-4 3-4.8 5.4-0.9 2.3-0.9 4.8-0.1 7.1 0.9 2.4 2.6 4.3 4.8 5.4z"/><path class="e" d="m568.2 350.2q-0.8 0-1.6-0.3-0.8-0.4-1.4-1-0.5-0.6-0.8-1.4-0.3-0.8-0.3-1.6l0.7-16.4q0.1-0.7 0.3-1.4 0.3-0.7 0.8-1.2 0.5-0.5 1.2-0.9 0.6-0.3 1.4-0.4l41.4-4.7-1.4 27.3-40.1 2q-0.1 0-0.2 0z"/><path class="f" d="m618.6 574.8l-11.6 3.8-20.3-43.2 17.2-5.6 14.7 45z"/><path class="g" d="m625.3 585.1l-37.6 12.3-0.2-0.5c-0.6-1.9-0.8-4-0.7-6 0.2-2 0.7-4 1.7-5.8 0.9-1.8 2.1-3.4 3.7-4.7 1.5-1.3 3.3-2.3 5.2-2.9l22.9-7.5z"/><path class="f" d="m652.9 592.8h-12.2l-5.8-47.3h18v47.3z"/><path class="g" d="m656.1 604.7h-39.6v-0.5c0-2 0.4-4 1.2-5.9 0.8-1.9 1.9-3.6 3.3-5 1.5-1.4 3.2-2.6 5-3.3 1.9-0.8 3.9-1.2 5.9-1.2h24.2z"/><path class="g" d="m634.3 581.3q-0.7 0-1.4-0.3-0.7-0.3-1.3-0.7-0.6-0.5-0.9-1.2-0.4-0.7-0.4-1.4l-15.9-132.2-23.1 37.2 27.2 69.3q0.2 0.8 0.2 1.5 0 0.8-0.2 1.5-0.3 0.7-0.8 1.3-0.6 0.6-1.3 0.9l-23 11.3q-0.8 0.4-1.7 0.4-0.9 0-1.7-0.3-0.8-0.4-1.4-1-0.6-0.7-0.9-1.5l-25.5-77.1q-0.7-2.2-1.1-4.4-0.4-2.3-0.5-4.5-0.1-2.3 0.1-4.6 0.2-2.3 0.8-4.5l16.5-67.7 0.2-0.1 37.2-20.4 0.2 0.1 43.8 16-4.6 86.8 3.3 90.1q0.1 0.8-0.2 1.6-0.3 0.7-0.8 1.3-0.6 0.6-1.3 1-0.7 0.3-1.5 0.4l-19.7 1.2q-0.1 0-0.3 0z"/><path class="e" d="m610.2 429c-6.6 0-12.1-1.8-15.5-6.6l-0.1-0.1 2.2-23.4-19.9 11c-0.4 0.2-0.8 0.3-1.3 0.3-0.5-0.1-0.9-0.3-1.3-0.6-0.3-0.3-0.6-0.7-0.7-1.2-0.1-0.4-0.1-0.9 0.1-1.3l24.7-65.8 16.4-53.6c0.4-2.1 1.1-4.2 2.1-6.1 1.1-1.9 2.4-3.6 3.9-5.2 1.5-1.5 3.3-2.8 5.2-3.8 1.9-1 4-1.7 6.1-2.1 14.6-2.6 23.3 2.3 33.3 13.2q1.8 2 3.1 4.3 1.4 2.4 2.1 5 0.8 2.5 0.9 5.2 0.2 2.7-0.3 5.4l-9.4 54.1 2.7 48.6q0.2 0.6 0.2 1.3-0.1 0.6-0.3 1.2-0.3 0.6-0.7 1.1-0.4 0.5-0.9 0.9c-7.8 4.9-31.5 18.2-52.6 18.2z"/><path class="f" d="m643.3 262.4c-13.6 0-24.5-11-24.5-24.5 0-13.6 10.9-24.6 24.5-24.6 13.6 0 24.6 11 24.6 24.6 0 13.5-11 24.5-24.6 24.5z"/><path class="f" d="m649.7 412.9c1.4-0.6 2.5-1.5 3.5-2.6 1-1.1 1.6-2.4 2-3.8 0.4-1.5 0.5-3 0.2-4.4-0.2-1.4-0.8-2.8-1.6-4l21.1-28.9-18.6-0.9-17.1 27.6c-2 1.5-3.3 3.7-3.7 6.1-0.4 2.5 0.1 5 1.4 7.1 1.3 2.1 3.3 3.7 5.7 4.4 2.3 0.7 4.9 0.5 7.1-0.6z"/><path class="e" d="m661.1 396.6q-0.3 0.1-0.7 0.1-0.4 0-0.8-0.1-0.4-0.1-0.7-0.3-0.4-0.1-0.7-0.3l-13.9-9.8q-0.7-0.4-1.1-1-0.4-0.7-0.6-1.4-0.2-0.8-0.1-1.5 0.2-0.8 0.5-1.4l24.9-44.2-25-30.1c-2.7-3.2-3.8-7.3-3.3-11.4 0.6-4.1 2.8-7.8 6.3-10.2 3.4-2.3 7.6-3.2 11.7-2.2 4 0.9 7.5 3.5 9.5 7.1l27.6 48.7q0.1 0.2 0.2 0.5 0.1 0.3 0.1 0.6 0 0.3-0.1 0.6-0.1 0.3-0.2 0.5l-30.6 53.8q-0.2 0.4-0.5 0.7-0.3 0.3-0.6 0.6-0.3 0.2-0.7 0.4-0.4 0.2-0.8 0.3-0.2 0-0.4 0z"/><path class="g" d="m633.5 234.7c-2.4-1.8-5.8-1.5-8.7-2.5-1.7-0.5-3.2-1.5-4.4-2.9-1.2-1.3-2-3-2.4-4.7-0.4-1.8-0.3-3.6 0.3-5.4 0.5-1.7 1.5-3.2 2.9-4.4 3.1-2.8 7.5-3.4 11.7-3.9 5.7-0.7 11.4-1.4 17.1-0.9 5.7 0.6 11.4 2.5 15.6 6.4 4.6 4.4 6.8 10.8 6.8 17.1q0 2.4-0.4 4.7-0.3 2.4-1 4.6-0.6 2.3-1.5 4.5-0.9 2.2-2.1 4.2-0.4 0.8-0.8 1.5-0.5 0.8-1 1.4-0.6 0.7-1.2 1.3-0.6 0.6-1.3 1.1c-1.9 1.3-4.6 1.6-6.5 0.3-1.6-1.2-2.2-3.3-2.9-5.1-0.7-1.9-1.9-3.9-3.9-4.1-2.5-0.4-4.4 2.2-6.9 3-3.3 1.2-7.1-1.4-8.5-4.7-1.3-3.3-1-7-0.6-10.6"/><path class="h" d="m850 604q0 0.2-0.1 0.4-0.1 0.2-0.2 0.3-0.1 0.1-0.3 0.2-0.2 0.1-0.4 0.1h-848q-0.4 0-0.7-0.3-0.3-0.3-0.3-0.7 0-0.4 0.3-0.7 0.3-0.3 0.7-0.3h848q0.2 0 0.4 0.1 0.2 0.1 0.3 0.2 0.1 0.1 0.2 0.3 0.1 0.2 0.1 0.4z"/><path class="e" d="m390.5 314c-7.2 0-13-5.8-13-13 0-7.2 5.8-13 13-13 7.2 0 13 5.8 13 13 0 7.2-5.8 13-13 13z"/><path class="a" d="m573.5 158.9c-5.4 7.2-29.3 15.7-36.1 18q-0.3 0.1-0.7 0-0.3 0-0.5-0.2-0.3-0.2-0.5-0.5-0.1-0.3-0.1-0.6c0.3-7.3 1.8-32.5 7.2-39.8 3.1-4 7.6-6.7 12.7-7.4 5-0.8 10.1 0.6 14.2 3.6 4 3.1 6.7 7.6 7.5 12.6 0.7 5.1-0.6 10.2-3.7 14.3z"/><path class="d" d="m559 156c-5.4 0-9.8-4.3-9.8-9.7 0-5.4 4.4-9.8 9.8-9.8 5.4 0 9.7 4.4 9.7 9.8 0 5.4-4.3 9.7-9.7 9.7z"/><path class="a" d="m530.3 188.9c-2.4 0-4.4-2-4.4-4.4 0-2.4 2-4.4 4.4-4.4 2.4 0 4.4 2 4.4 4.4 0 2.4-2 4.4-4.4 4.4z"/><path class="a" d="m97.7 357.3c8 12.2 7.7 53 7.5 64.7q0 0.5-0.3 1-0.3 0.5-0.7 0.8-0.5 0.3-1 0.3-0.5 0.1-1-0.1c-10.8-4.5-48.3-20.6-56.3-32.8-4.5-6.8-6.1-15.2-4.4-23.2 1.7-8.1 6.5-15.1 13.3-19.6 6.9-4.5 15.3-6.1 23.3-4.4 8 1.7 15.1 6.5 19.6 13.3z"/><path class="d" d="m70.6 388.2c-8.7 0-15.7-7-15.7-15.7 0-8.7 7-15.8 15.7-15.8 8.7 0 15.7 7.1 15.7 15.8 0 8.7-7 15.7-15.7 15.7z"/><path class="a" d="m112.8 444c-3.9 0-7-3.2-7-7.1 0-3.9 3.1-7 7-7 3.9 0 7.1 3.1 7.1 7 0 3.9-3.2 7.1-7.1 7.1z"/></svg>