<svg version="1.2" xmlns="http://www.w3.org/2000/svg" viewBox="0 0 890 730" width="890" height="730"><style>.a{fill:#2f2e41}.b{fill:#e6e6e6}.c{fill:#d71a21}.d{fill:#fff}.e{fill:#ffb8b8}.f{opacity:.2}.g{fill:#3f3d56}.h{fill:#ffb6b6}.i{fill:#cacaca}</style><path class="a" d="m219.7 665.9l1.8 38.2c0.1 3.2-0.3 6.4-1.4 9.4-1.1 3-2.8 5.7-4.9 8.1-2.2 2.4-4.8 4.3-7.7 5.6-2.9 1.4-6 2.2-9.2 2.3l-0.8 0.1-2.9-62.5z"/><path class="b" d="m762.2 601.4c-18.2 35.5-41.3 69.8-70.4 100.8q-1 1.1-2 2.1l-69.1-32.7q0.7-1.1 1.4-2.4c29.7-50.7 208.9-360.5 203.2-430.7 0.7 5.8 21.9 197.2-63.1 362.9z"/><path class="b" d="m705.1 708.5q-1.4 0.9-2.9 1.7l-51.9-24.6q1.1-0.8 2.6-1.8c15.8-11.4 63.1-45.6 109.3-82.4 49.6-39.5 98.1-81.9 105.3-102.2-1.4 4.6-46.9 145.9-162.4 209.3z"/><path class="c" d="m86.2 728.1c-44.2 0-80-35.8-80-80 0-44.3 35.8-80 80-80 44.3 0 80 35.7 80 80 0 44.2-35.7 80-80 80z"/><path fill-rule="evenodd" class="d" d="m122.4 615.3c1.3 0.5 2.4 1.3 3.4 2.3 1 1 1.8 2.2 2.3 3.5 0.6 1.3 0.9 2.7 0.9 4.1v45.7c0 1.4-0.3 2.8-0.9 4.1-0.5 1.3-1.3 2.5-2.3 3.5-1 1-2.1 1.8-3.4 2.3-1.3 0.5-2.7 0.8-4.1 0.8h-64.1c-1.4 0-2.8-0.3-4.1-0.8-1.3-0.5-2.5-1.3-3.5-2.3-1-1-1.7-2.2-2.3-3.5-0.5-1.3-0.8-2.7-0.8-4.1v-45.7c0-1.4 0.3-2.8 0.8-4.1 0.6-1.3 1.3-2.5 2.3-3.5 1-1 2.2-1.8 3.5-2.3 1.3-0.5 2.7-0.8 4.1-0.8h64.1c1.4 0 2.8 0.3 4.1 0.8zm-68.2 5.3q-0.1 0-0.2 0-0.2 0-0.3 0-0.1 0-0.2 0-0.1 0.1-0.2 0.1l32.9 26.5 33.2-26.5q-0.1 0-0.3 0-0.1-0.1-0.3-0.1-0.1 0-0.2 0-0.2 0-0.3 0zm65.8 54.6q0.9-0.4 1.5-1 0.6-0.7 1-1.5 0.3-0.8 0.3-1.8v-45.1l-34.7 27.7q-0.4 0.3-0.9 0.5-0.5 0.2-1 0.2-0.5 0-1-0.2-0.5-0.2-0.9-0.5l-34.7-27.9v45.3q0 1 0.3 1.8 0.4 0.8 1 1.5 0.7 0.6 1.5 1 0.9 0.3 1.8 0.3h64.1q0.9 0 1.7-0.3z"/><path class="e" d="m395 532.6l17.9 0.1c1.8 0 3.6-0.4 5.2-1.1 1.7-0.8 3.1-1.9 4.3-3.2 1.2-1.4 2.1-3 2.6-4.8 0.4-1.7 0.6-3.5 0.3-5.3-0.3-2-1.1-3.8-2.2-5.4-1.2-1.5-2.7-2.8-4.4-3.7-1.7-0.9-3.7-1.4-5.6-1.4-2 0-3.9 0.4-5.6 1.3l-16.9 8.3-57.8 12.9-24.7-25.3-14.2 23.4 33.4 25.8z"/><path class="a" d="m391.6 717.5l-21.1 4c-14.4-45.4-30-88.4-30-121.6-20.4 22.7-45.7 35.6-75.4 39.7l3.2-50.3 24.4-12.9 37.2-17.2q1.2-0.6 2.5-1 1.3-0.5 2.6-0.8 1.3-0.3 2.6-0.5 1.3-0.2 2.7-0.3c3.4-0.2 6.9 0.3 10.2 1.3 3.3 1.1 6.3 2.8 9 4.9 2.7 2.2 5 4.9 6.7 7.9 1.8 3 2.9 6.3 3.5 9.7z"/><path class="a" d="m290.6 633.5l-8.4 6.4q-2.7 2.1-5.8 3.4-3.2 1.3-6.6 1.7-3.3 0.5-6.7 0-3.4-0.4-6.5-1.7c-24.1-18.1-41.2-12.8-56.7 14.5-18.6-21-23.2-51.3-6.6-82.7l92.1 2.1 18.6-5.7z"/><path class="a" d="m260 727.5c-2.7 0.8-5.4 1.2-8.1 1-2.8-0.1-5.4-0.7-8-1.8-2.5-1.1-4.8-2.5-6.8-4.4-2-1.9-3.7-4.1-5-6.5-8.2-7.3-15.2-17.7-21.3-30.4q-1.6-3.5-3.1-7-1.5-3.6-2.9-7.2-1.4-3.6-2.7-7.2-1.3-3.6-2.4-7.3c-4.2-12.9 2.8-27.1 15.8-30.9q0.6-0.2 1.2-0.4c17.4-4.4 35.3 5.6 41.2 22.6l17.3 49.3c1.1 2.9 1.5 6 1.3 9-0.1 3.1-0.9 6.1-2.3 8.9-1.3 2.8-3.2 5.3-5.5 7.4-2.3 2-5 3.6-7.9 4.6q-0.4 0.2-0.8 0.3z"/><path class="f" d="m207.9 679.8c0 0 20.3 22.7 24.3 35.7"/><path class="e" d="m129.2 572.6l-6.7 16.6c-0.7 1.6-1 3.4-1 5.2 0.1 1.9 0.6 3.6 1.4 5.2 0.9 1.6 2.1 3 3.5 4.1 1.4 1.1 3.1 1.9 4.8 2.3 2 0.5 3.9 0.4 5.8 0 1.9-0.5 3.7-1.4 5.1-2.7 1.5-1.3 2.7-2.9 3.4-4.7 0.7-1.8 1-3.8 0.9-5.7l-1.5-18.8 9.5-58.3 32.7-13.6-16.4-21.9-36.4 21.4z"/><path class="c" d="m291.4 575.1c-23.3 39.2-69.7 54.3-109.5 23.7 7-23 29.6-86.6 15-89-31 13-31.1-17.5-36.9-32.8l70.6-26 38.1 10.6 7.8 2.7c2.6 0.9 4.9 2.2 7.1 3.8 2.1 1.6 4 3.6 5.6 5.8 1.5 2.1 2.8 4.5 3.6 7.1 0.8 2.5 1.3 5.2 1.3 7.9-16 23.1-27.8 47.8-2.7 86.2z"/><path class="c" d="m300.4 543.5l-28-23.1 9.3-54 38.1 40.6z"/><path class="g" d="m764.7 172.9h-4v-109.5c0-8.3-1.6-16.6-4.8-24.3-3.2-7.7-7.9-14.6-13.8-20.5-5.9-5.9-12.8-10.6-20.5-13.8-7.7-3.2-16-4.8-24.3-4.8h-232.1c-8.3 0-16.6 1.6-24.2 4.8-7.7 3.2-14.7 7.9-20.6 13.8-5.9 5.9-10.6 12.8-13.8 20.5-3.1 7.7-4.8 16-4.8 24.3v601c0 8.3 1.7 16.5 4.8 24.2 3.2 7.7 7.9 14.7 13.8 20.6 5.9 5.9 12.9 10.6 20.6 13.7 7.6 3.2 15.9 4.9 24.2 4.9h232.1c8.3 0 16.6-1.7 24.3-4.9 7.7-3.1 14.6-7.8 20.5-13.7 5.9-5.9 10.6-12.9 13.8-20.6 3.2-7.7 4.8-15.9 4.8-24.2v-413.5h4z"/><path class="d" d="m699.9 16.5h-30.3c1.4 3.4 1.9 7.1 1.5 10.8-0.4 3.7-1.6 7.2-3.7 10.2-2 3.1-4.8 5.6-8.1 7.3-3.2 1.8-6.9 2.7-10.6 2.7h-132.9c-3.7 0-7.3-0.9-10.6-2.7-3.3-1.7-6-4.2-8.1-7.3-2-3-3.3-6.5-3.7-10.2-0.4-3.7 0.2-7.4 1.6-10.8h-28.3c-6.3 0-12.4 1.2-18.2 3.6-5.7 2.4-10.9 5.9-15.3 10.3-4.4 4.4-7.9 9.6-10.3 15.3-2.4 5.8-3.6 11.9-3.6 18.1v600.1c0 6.3 1.2 12.4 3.6 18.2 2.4 5.7 5.9 10.9 10.3 15.3 4.4 4.4 9.6 7.9 15.3 10.3 5.8 2.4 11.9 3.6 18.2 3.6h233.2c6.2 0 12.3-1.2 18.1-3.6 5.7-2.4 10.9-5.9 15.3-10.3 4.4-4.4 7.9-9.6 10.3-15.3 2.4-5.8 3.6-11.9 3.6-18.2v-600.1c0-6.2-1.2-12.3-3.6-18.1-2.4-5.7-5.9-10.9-10.3-15.3-4.4-4.4-9.6-7.9-15.3-10.3-5.8-2.4-11.9-3.6-18.1-3.6q0 0 0 0z"/><path class="b" d="m583.7 677.7c-14.4 0-26-11.6-26-26 0-14.3 11.6-26 26-26 14.3 0 26 11.7 26 26 0 14.4-11.7 26-26 26z"/><path class="b" d="m478.2 411.3c-2.5 0-4.5 2.3-4.5 5.1 0 2.8 2 5.1 4.5 5.1h210.1c2.5 0 4.5-2.3 4.5-5.1 0-2.8-2-5.1-4.5-5.1z"/><path class="b" d="m478.2 531.3c-2.5 0-4.5 2.3-4.5 5.1 0 2.8 2 5.1 4.5 5.1h210.1c2.5 0 4.5-2.3 4.5-5.1 0-2.8-2-5.1-4.5-5.1z"/><path class="b" d="m478.2 441.8c-2.5 0-4.5 2.3-4.5 5.1 0 2.8 2 5.1 4.5 5.1h90.4c2.5 0 4.5-2.3 4.5-5.1 0-2.8-2-5.1-4.5-5.1z"/><path class="b" d="m478.2 470.9c-2.5 0-4.5 2.3-4.5 5.1 0 2.8 2 5.1 4.5 5.1h210.1c2.5 0 4.5-2.3 4.5-5.1 0-2.8-2-5.1-4.5-5.1z"/><path class="b" d="m478.2 501.5c-2.5 0-4.5 2.2-4.5 5 0 2.8 2 5.1 4.5 5.1h90.4c2.5 0 4.5-2.3 4.5-5.1 0-2.8-2-5-4.5-5z"/><path class="c" d="m517.9 179.6h130.8q1.1 0 2.1 0.4 1 0.5 1.7 1.2 0.8 0.8 1.2 1.8 0.4 1 0.4 2.1v136.2q0 1.1-0.4 2.1-0.4 1-1.2 1.8-0.7 0.7-1.7 1.1-1 0.5-2.1 0.5h-130.8q-1.1 0-2.1-0.5-1-0.4-1.8-1.1-0.8-0.8-1.2-1.8-0.4-1-0.4-2.1v-136.2q0-1.1 0.4-2.1 0.4-1 1.2-1.8 0.8-0.7 1.8-1.2 1-0.4 2.1-0.4z"/><path class="d" d="m620.8 298.7c1 0 1.9-0.4 2.6-1.1 0.7-0.7 1.1-1.6 1.1-2.6 0-1-0.4-2-1.1-2.6-0.7-0.7-1.6-1.1-2.6-1.1h-75.1c-1 0-1.9 0.4-2.6 1.1-0.7 0.6-1.1 1.6-1.1 2.6 0 1 0.4 1.9 1.1 2.6 0.7 0.7 1.6 1.1 2.6 1.1z"/><path class="d" d="m620.8 276.9c1 0 1.9-0.4 2.6-1.1 0.7-0.7 1.1-1.7 1.1-2.6 0-1-0.4-2-1.1-2.6-0.7-0.7-1.6-1.1-2.6-1.1h-75.1c-1 0-1.9 0.4-2.6 1.1-0.7 0.6-1.1 1.6-1.1 2.6 0 0.9 0.4 1.9 1.1 2.6 0.7 0.7 1.6 1.1 2.6 1.1z"/><path class="d" d="m583.3 207.7c9.4 0 17.9 5.7 21.5 14.4 3.6 8.7 1.6 18.7-5.1 25.4-6.6 6.6-16.7 8.6-25.4 5-8.7-3.6-14.3-12.1-14.3-21.5 0-3 0.6-6.1 1.7-8.9 1.2-2.8 2.9-5.4 5.1-7.5 2.2-2.2 4.7-3.9 7.6-5.1 2.8-1.2 5.8-1.8 8.9-1.8z"/><path class="a" d="m286.1 444h-69.2q-1.1 0-2-0.4-1-0.5-1.8-1.2-0.7-0.8-1.1-1.7-0.4-1-0.5-2.1v-29.8c0-10.6 4.3-20.8 11.7-28.2 7.5-7.5 17.7-11.7 28.3-11.7 10.6 0 20.7 4.2 28.2 11.7 7.5 7.4 11.7 17.6 11.7 28.2v29.8q0 1.1-0.4 2.1-0.4 0.9-1.1 1.7-0.8 0.7-1.8 1.2-1 0.4-2 0.4z"/><path class="h" d="m284.8 426.9c-7.7 14.2-25.5 19.5-39.7 11.7-14.2-7.8-19.4-25.5-11.7-39.8 7.8-14.2 25.6-19.4 39.8-11.6 14.2 7.8 19.4 25.5 11.6 39.7z"/><path class="a" d="m300.9 411.8h-42.3l-0.4-6.1-2.2 6.1h-6.5l-0.9-12.1-4.3 12.1h-12.6v-0.6c0-4.2 0.9-8.3 2.4-12.1 1.6-3.8 4-7.3 6.9-10.2 2.9-3 6.4-5.3 10.2-6.9 3.9-1.6 8-2.4 12.1-2.4h6c4.1 0 8.2 0.8 12.1 2.4 3.8 1.6 7.3 3.9 10.2 6.9 2.9 2.9 5.3 6.4 6.9 10.2 1.6 3.8 2.4 7.9 2.4 12.1z"/><path class="a" d="m258.2 449.5q-0.1 0-0.2 0-0.1 0-0.2 0-0.1 0-0.3 0-0.1 0-0.2 0l-31-5.5v-51.2h34.1l-0.8 1c-11.8 13.7-2.9 35.9 3.4 47.9q0.3 0.7 0.5 1.4 0.2 0.7 0.1 1.5-0.1 0.7-0.3 1.4-0.3 0.7-0.7 1.3-0.4 0.5-0.9 0.9-0.5 0.5-1 0.7-0.6 0.3-1.2 0.5-0.6 0.1-1.3 0.1z"/><path class="a" d="m361.3 702.2h38.2c3.2 0 6.4 0.6 9.3 1.8 3 1.3 5.7 3 7.9 5.3 2.3 2.3 4.1 4.9 5.3 7.9 1.2 3 1.9 6.1 1.9 9.3v0.8h-62.6z"/><path class="i" d="m889 729.8h-888q-0.4 0-0.7-0.3-0.3-0.3-0.3-0.7 0-0.4 0.3-0.7 0.3-0.3 0.7-0.3h888q0.4 0 0.7 0.3 0.3 0.3 0.3 0.7 0 0.4-0.3 0.7-0.3 0.3-0.7 0.3z"/></svg>