<svg version="1.2" xmlns="http://www.w3.org/2000/svg" viewBox="0 0 782 643" width="782" height="643"><style>.a{fill:#f1f1f1}.b{fill:#9f616a}.c{fill:#2f2e41}.d{fill:#cbcbcb}.e{fill:#3f3d56}.f{fill:#fff}.g{fill:#e5e5e5}.h{fill:#d71a21}</style><path class="a" d="m731.4 642.2v-72.3c0 0 28.2 51.3 0 72.3z"/><path class="a" d="m733.2 642.2l-53.3-48.9c0 0 56.8 13.9 53.3 48.9z"/><path class="a" d="m238.4 22c-6.1 0-11-4.9-11-11 0-6.1 4.9-11 11-11 6.1 0 11 4.9 11 11 0 6.1-4.9 11-11 11z"/><path class="a" d="m210.4 50c-6.1 0-11-4.9-11-11 0-6.1 4.9-11 11-11 6.1 0 11 4.9 11 11 0 6.1-4.9 11-11 11z"/><path class="a" d="m203.4 547c-6.1 0-11-4.9-11-11 0-6.1 4.9-11 11-11 6.1 0 11 4.9 11 11 0 6.1-4.9 11-11 11z"/><path  d=""/><path class="b" d="m580.1 629.1h-12l-0.7-45.5 12.7-0.7v46.2z"/><path class="c" d="m583.1 640.8h-38.6v-0.5c0-2 0.4-4 1.1-5.8 0.8-1.8 1.9-3.5 3.3-4.9 1.4-1.4 3-2.5 4.9-3.2 1.8-0.8 3.8-1.2 5.7-1.2h23.6z"/><path class="b" d="m648.7 615.3l-11 4.8-18.8-41.4 11.3-5.7 18.5 42.3z"/><path class="c" d="m620.7 640.2l-0.2-0.4c-0.8-1.8-1.2-3.8-1.3-5.8 0-1.9 0.4-3.9 1.1-5.8 0.7-1.8 1.8-3.5 3.1-4.9 1.4-1.4 3.1-2.6 4.9-3.3l21.6-9.5 6.2 14.3z"/><path class="b" d="m601.4 270c-14.4 0-26-11.6-26-26 0-14.4 11.6-26 26-26 14.3 0 25.9 11.6 25.9 26 0 14.4-11.6 26-25.9 26z"/><path class="c" d="m647.8 593.6l-33.5-82 16.3-76.7-30.9-1.7-17.1 85.9 42.9 85.1 22.3-10.6z"/><path class="c" d="m611.2 419.6l-15.9 98-4.7 94-27.3-0.2-1-179.8 48.9-12z"/><path class="d" d="m632.9 425.2l-1.6 14.2-77.4 3.4 5.2-21.3 73.8 3.7z"/><path class="b" d="m559.3 452c-0.8-0.9-1.3-2-1.7-3.2-0.3-1.1-0.4-2.3-0.2-3.5 0.1-1.2 0.5-2.3 1.1-3.3 0.6-1.1 1.3-2 2.3-2.7q0.1-0.1 0.3-0.2 0.1-0.2 0.3-0.3 0.2-0.1 0.3-0.2 0.2 0 0.3-0.1l30.4-114.1 18 7.9-35.7 110.2q0.7 1.4 0.8 2.9 0.2 1.6-0.2 3-0.4 1.5-1.2 2.8-0.8 1.3-2 2.2c-1 0.8-2 1.3-3.2 1.6-1.1 0.4-2.3 0.5-3.5 0.3-1.2-0.1-2.4-0.5-3.4-1-1.1-0.6-2-1.4-2.7-2.3z"/><path class="e" d="m578.4 295l3.6-7.4c0 0 17.7-15.3 36.3-6.1l2.8 8.5 15.2 24.5-3.4 113.1c0 0-63.3-4.8-79 1l6.9-89.7z"/><path class="d" d="m581.7 438.6l-26.7-7.5 24.7-77.3 2.3-43.1q0.1-1.6 0.5-3.2 0.4-1.6 1.2-3 0.7-1.5 1.8-2.7 1-1.3 2.3-2.3 1.5-1.3 3.3-2.2 1.8-0.9 3.7-1.4 1.9-0.5 3.8-0.7 2-0.1 4 0.2c8.7 1.2 15.1 7.9 15.3 15.9l-8.6 60.5-2.8 9.8z"/><path class="c" d="m613.1 264.3l5.9 1.5 9-9.5c0 0 16.5-38.2-19.9-44-36.4-5.9-28.5 8.9-33.3 18.1l14.8 3.9 13.4 13.7c0 0 8.8-6.4 11.3-0.6 2.6 5.8-1.2 16.9-1.2 16.9z"/><path class="f" d="m406.1 485.8h-406.1v-406h406.1z"/><path fill-rule="evenodd" class="g" d="m406.1 485.8h-406.1v-406h406.1zm-400.1-6h394.1v-394.1h-394.1z"/><path class="h" d="m83.7 254.3h260.5v9.2h-260.5z"/><path class="h" d="m83.7 278.2h260.5v9.2h-260.5z"/><path class="h" d="m83.7 302.1h260.5v9.2h-260.5z"/><path class="h" d="m67.9 266.3c-3.3 0-6-2.7-6-6 0-3.3 2.7-6 6-6 3.3 0 6 2.7 6 6 0 3.3-2.7 6-6 6z"/><path class="g" d="m83.7 151.3h260.5v9.2h-260.5z"/><path class="g" d="m83.7 175.2h260.5v9.2h-260.5z"/><path class="g" d="m83.7 199.1h260.5v9.2h-260.5z"/><path class="g" d="m67.9 162.3c-3.3 0-6-2.7-6-6 0-3.3 2.7-6 6-6 3.3 0 6 2.7 6 6 0 3.3-2.7 6-6 6z"/><path class="g" d="m83.7 358.3h260.5v9.2h-260.5z"/><path class="g" d="m83.7 382.2h260.5v9.2h-260.5z"/><path class="g" d="m83.7 406.1h260.5v9.2h-260.5z"/><path class="g" d="m67.9 369.3c-3.3 0-6-2.7-6-6 0-3.3 2.7-6 6-6 3.3 0 6 2.7 6 6 0 3.3-2.7 6-6 6z"/><path class="d" d="m780.7 642h-299q-0.4-0.1-0.7-0.3-0.3-0.3-0.3-0.7 0-0.5 0.3-0.8 0.3-0.2 0.7-0.2h299q0.4 0 0.7 0.2 0.3 0.3 0.3 0.8 0 0.4-0.3 0.7-0.3 0.2-0.7 0.3z"/></svg>