<svg version="1.2" xmlns="http://www.w3.org/2000/svg" viewBox="0 0 406 458" width="406" height="458"><style>.a{fill:#ffb6b6}.b{fill:#2f2e41}.c{fill:#d71a21}.d{fill:#ccc}.e{fill:#3f3d56}.f{fill:#fff}.g{fill:#e6e6e6}</style><path class="a" d="m155.5 280c2.3 4.5 1.9 9.3-0.9 10.7-2.9 1.5-7-0.9-9.4-5.4-1-1.9-1.4-4-1.4-5.7l-9.6-19.1 9.1-4.3 8.4 19.3c1.5 1 2.8 2.5 3.8 4.5z"/><path class="a" d="m84.6 451.7h8.1l3.9-31.3h-12v31.3z"/><path class="b" d="m112.4 451.5c0.3 0.5 0.4 1.8 0.4 2.3 0 1.6-1.2 2.8-2.7 2.8h-25.2c-1 0-1.9-0.9-1.9-1.9v-1c0 0-1.2-3.2 1.3-7.1 0 0 3.2 3.1 8-1.7l1.4-2.5 10.2 7.4 5.6 0.7c1.2 0.1 2.3 0 2.9 1z"/><path class="a" d="m46.5 451.7h8.1l3.9-31.3h-12v31.3z"/><path class="b" d="m74.3 451.5c0.3 0.5 0.4 1.8 0.4 2.3 0 1.6-1.2 2.8-2.7 2.8h-25.2c-1.1 0-1.9-0.9-1.9-1.9v-1c0 0-1.2-3.2 1.3-7.1 0 0 3.2 3.1 8-1.7l1.4-2.5 10.1 7.4 5.7 0.7c1.2 0.1 2.3 0 2.9 1z"/><path class="b" d="m35 266.8l-3.4 20.9 10.6 67.7 2.7 81.8h14.3l7.4-77.2-0.8-51 17.1 128.9h14.9l1.5-161.6-64.3-9.5z"/><path class="c" d="m52.9 158.4h26.9l23.3 13.7c-3.7-1-6.5 32.7-6.6 62.4 0 2-1.9 4.2-1.9 6.2 0 1.6 2 2.9 2 4.6q0.1 2.2 0.2 4.4c0 1.2-2.3 2.8-2.2 4 0.1 1.4 2.4 2.5 2.5 3.9 0.6 8.5 1.5 15.3 2.9 18.7 0 0-60.1 16.7-64.6-9.1 0 0 0.2-9.3 0.2-22.2 0-1.1-1-2.2-1-3.3 0-0.9 1-2 0.9-2.9 0-0.7-0.9-1.4-0.9-2.1 0-0.5 0.9-1 0.9-1.5-0.4-24.4-2-55.2-7.7-63.1 0 0 25.1-13.7 25.1-13.7z"/><path class="c" d="m79.5 158.4c0 0 17.4 6.3 23 11.4 2.9 2.6 22.6 53.2 22.6 53.2l27.4 47.7-14.2 5.5-29.1-44-13-28.9z"/><path class="a" d="m43.3 281.8c2.5 4.3 2.4 9.2-0.4 10.8-2.7 1.6-7-0.6-9.6-4.9-1.1-1.9-1.7-3.9-1.8-5.7l-10.5-18.5 8.8-4.8 9.4 18.8c1.5 0.9 3 2.4 4.1 4.3z"/><path class="c" d="m49.1 182l-7.7-17.5c0 0-17.8 5.7-17.8 14 0 0-10.7 63.9-9.2 79.9l9.9 17.5 14.1-11-8.7-20.2z"/><path class="b" d="m33.4 295.6l9-17.8 10.5 14.5-9.5 9.1-10-5.8z"/><path class="a" d="m66.1 153.3c-9.7 0-17.4-7.7-17.4-17.4 0-9.6 7.7-17.4 17.4-17.4 9.6 0 17.4 7.8 17.4 17.4 0 9.7-7.8 17.4-17.4 17.4z"/><path class="b" d="m79.6 116.5c-3-1-4.4-4.6-7.2-6.1-3-1.8-6.7-2.8-10.1-1.9-2.1 0.6-3.9 2-5.9 2.5q-0.6 0.2-1.2 0.3c-2.2 0.2-4.1 1.5-5.2 3.4v0.1c-0.7 1.1-1.6 2-2.5 3-3 3.7-4.6 8.4-4.6 13.2 0.1 5 2 10.1 5.4 13.9l0.9-0.4q3.1 2.7 6.3 5.4c-1.1-4.1-2.3-8.4-1.7-12.6 0.6-4.2 3.5-8.5 7.7-9.3 1.5-0.3 3.2-0.1 4.8-0.6 1.5-0.5 2.9-2.1 2.4-3.6 0.9 2.5 4.5 2.4 7 3.5 5.4 2.5 3.4-1.4 8.2 2.3 1.6-8.9 7.8-9.3-4.3-13.1z"/><path class="d" d="m0 456c0 0.6 0.5 1.2 1.2 1.2h403.3c0.6 0 1.2-0.6 1.2-1.2 0-0.7-0.6-1.2-1.2-1.2h-403.3c-0.7 0-1.2 0.5-1.2 1.2z"/><path class="e" d="m351.7 457.2h-176.4c-21.5 0-39-17.5-39-39v-379.2c0-21.5 17.5-39 39-39h176.4c21.5 0 39 17.5 39 39v379.2c0 21.5-17.5 39-39 39z"/><path class="e" d="m390.7 139.5c-0.9 0-1.6 0.7-1.6 1.6v52.8c0 0.9 0.7 1.7 1.6 1.7 0.9 0 1.7-0.8 1.7-1.7v-52.8c0-0.9-0.8-1.6-1.7-1.6z"/><path class="f" d="m387 39v379.2c0 18.7-14.6 34-33 35.2q-0.4 0-0.8 0-0.7 0.1-1.5 0.1c0 0-1.8-0.2-5.1-0.4-3.4-0.3-8.2-0.6-14.3-1.1q-2.8-0.2-5.8-0.5c-4-0.3-8.5-0.7-13.2-1.1q-2.9-0.2-5.9-0.5c-10.3-0.9-21.7-1.9-33.8-3.1q-3.1-0.3-6.2-0.6-0.9-0.1-1.7-0.1c-8.6-0.9-125.7-23.5-125.7-27.9v-379.2c0-19.5 15.8-35.3 35.3-35.3h21.1c3.3 0 6.1 2.6 6.3 6q0.1 0.3 0.1 0.7c0.6 3.3 3.7 5.7 7.2 5.7h107.1c3.4 0 6.5-2.4 7.1-5.7q0-0.4 0.1-0.7c0.3-3.4 3-6 6.3-6h21.1c19.5 0 35.3 15.8 35.3 35.3z"/><path class="e" d="m135.5 99.9c-1 0-1.7 0.7-1.7 1.6v13.2c0 0.9 0.7 1.7 1.7 1.7 0.9 0 1.6-0.8 1.6-1.7v-13.2c0-0.9-0.7-1.6-1.6-1.6z"/><path class="e" d="m135.5 139.5c-1 0-1.7 0.7-1.7 1.6v25.6c0 0.9 0.7 1.6 1.7 1.6 0.9 0 1.6-0.7 1.6-1.6v-25.6c0-0.9-0.7-1.6-1.6-1.6z"/><path class="e" d="m135.5 175.8c-1 0-1.7 0.7-1.7 1.6v25.6c0 0.9 0.7 1.7 1.7 1.7 0.9 0 1.6-0.8 1.6-1.7v-25.6c0-0.9-0.7-1.6-1.6-1.6z"/><path class="g" d="m164.2 9.5h31.6c0.2 0 0.3 0.1 0.3 0.3v3.5c0 0.2-0.1 0.3-0.3 0.3h-31.6c-0.1 0-0.3-0.1-0.3-0.3v-3.5c0-0.2 0.2-0.3 0.3-0.3z"/><path class="g" d="m335.9 13.6c-1.9 0-3.3-1.5-3.3-3.3 0-1.8 1.4-3.3 3.3-3.3 1.8 0 3.3 1.5 3.3 3.3 0 1.8-1.5 3.3-3.3 3.3z"/><path class="g" d="m344.9 13.6c-1.8 0-3.3-1.5-3.3-3.3 0-1.8 1.5-3.3 3.3-3.3 1.9 0 3.3 1.5 3.3 3.3 0 1.8-1.4 3.3-3.3 3.3z"/><path class="g" d="m354 13.6c-1.8 0-3.3-1.5-3.3-3.3 0-1.8 1.5-3.3 3.3-3.3 1.8 0 3.3 1.5 3.3 3.3 0 1.8-1.5 3.3-3.3 3.3z"/><path class="g" d="m333.5 95.2h-140c-2.2 0-4-1.8-4-4 0-2.2 1.8-4 4-4h140c2.2 0 4 1.8 4 4 0 2.2-1.8 4-4 4z"/><path class="g" d="m357 411.7h-52c-2.2 0-4-1.8-4-4 0-2.2 1.8-4 4-4h52c2.3 0 4 1.8 4 4 0 2.2-1.7 4-4 4z"/><path class="g" d="m218 411.7h-52c-2.2 0-4-1.8-4-4 0-2.2 1.8-4 4-4h52c2.3 0 4 1.8 4 4 0 2.2-1.7 4-4 4z"/><path class="e" d="m166 105.9h195.1v1h-195.1z"/><path class="g" d="m333.5 156.2h-140c-2.2 0-4-1.8-4-4 0-2.2 1.8-4 4-4h140c2.2 0 4 1.8 4 4 0 2.2-1.8 4-4 4z"/><path class="e" d="m166 166.9h195.1v1h-195.1z"/><path class="g" d="m333.5 217.2h-140c-2.2 0-4-1.8-4-4 0-2.2 1.8-4 4-4h140c2.2 0 4 1.8 4 4 0 2.2-1.8 4-4 4z"/><path class="e" d="m166 227.9h195.1v1h-195.1z"/><path class="e" d="m166 279.9h195.1v1h-195.1z"/><path class="e" d="m166 331.9h195.1v1h-195.1z"/><path class="c" d="m264.9 368.5c-32.1 0-58-25.9-58-58 0-32.1 25.9-58 58-58 32.1 0 58 25.9 58 58 0 32.1-25.9 58-58 58z"/></svg>