<svg version="1.2" xmlns="http://www.w3.org/2000/svg" viewBox="0 0 632 594" width="632" height="594"><style>.a{fill:#ccc}.b{fill:#fff}.c{fill:#ffb8b8}.d{fill:#2f2e41}.e{fill:#3f3d56}.f{fill:#d71a21}.g{fill:#e6e6e6}</style><path class="a" d="m506.1 459.9c-10.5 0-20-6.3-24-16-4.1-9.7-1.8-20.9 5.6-28.3 7.4-7.5 18.6-9.7 28.3-5.7 9.8 4 16.1 13.5 16.1 24 0 3.5-0.7 6.8-2 10-1.3 3.1-3.2 6-5.6 8.4-2.4 2.4-5.3 4.3-8.5 5.7-3.1 1.3-6.5 1.9-9.9 1.9z"/><path class="b" d="m518.1 432.9h-11v-12.5q0-0.4-0.3-0.7-0.3-0.3-0.7-0.3-0.4 0-0.7 0.3-0.3 0.3-0.3 0.7v12.5h-11q-0.4 0-0.7 0.3-0.3 0.3-0.3 0.7 0 0.5 0.3 0.7 0.3 0.3 0.7 0.3h11v12.5q0 0.5 0.3 0.7 0.3 0.3 0.7 0.3 0.4 0 0.7-0.3 0.3-0.2 0.3-0.7v-12.5h11q0.4 0 0.7-0.3 0.3-0.2 0.3-0.7 0-0.4-0.3-0.7-0.3-0.3-0.7-0.3z"/><path class="c" d="m606.2 581.8h-11.4l-5.4-44.1h16.8v44.1z"/><path class="d" d="m586.6 578.5h22.1v13.9h-36c0-1.8 0.4-3.6 1.1-5.3 0.7-1.7 1.7-3.2 3-4.5 1.3-1.3 2.8-2.3 4.5-3 1.7-0.7 3.5-1.1 5.3-1.1z"/><path class="c" d="m560.7 581.8h-11.4l-5.4-44.1h16.8v44.1z"/><path class="d" d="m541.1 578.5h22.1v13.9h-36c0-1.8 0.4-3.6 1.1-5.3 0.7-1.7 1.7-3.2 3-4.5 1.3-1.3 2.8-2.3 4.5-3 1.7-0.7 3.5-1.1 5.3-1.1z"/><path class="c" d="m615 429.3c-0.9-1-1.6-2.2-2-3.5-0.4-1.3-0.5-2.7-0.3-4.1 0.2-1.3 0.7-2.6 1.4-3.8 0.8-1.1 1.7-2.1 2.9-2.8l-3.5-21.1 12.3-5.3 4.6 29.9c1.1 2 1.4 4.4 0.8 6.6-0.5 2.3-1.8 4.2-3.7 5.6-1.9 1.3-4.2 1.9-6.5 1.6-2.3-0.3-4.4-1.4-6-3.1z"/><path class="c" d="m518.6 419.3c1.1-0.8 1.9-1.9 2.6-3.1 0.6-1.2 0.9-2.6 0.9-3.9 0.1-1.4-0.2-2.8-0.7-4-0.6-1.3-1.4-2.4-2.4-3.3l7-20.3-11.3-7.2-9.5 28.7c-1.4 1.8-2.1 4.1-1.9 6.4 0.1 2.3 1.1 4.5 2.8 6.1 1.6 1.6 3.8 2.6 6.1 2.7 2.3 0.1 4.6-0.6 6.4-2.1z"/><path class="c" d="m577.1 270.1c-13.5 0-24.5-11-24.5-24.6 0-13.5 11-24.5 24.5-24.5 13.6 0 24.6 11 24.6 24.5 0 13.6-11 24.6-24.6 24.6z"/><path class="e" d="m517.8 404.2q-0.1 0-0.3 0-0.1 0-0.3-0.1-0.2 0-0.3 0-0.2 0-0.3-0.1l-7.2-2q-0.8-0.3-1.5-0.8-0.7-0.6-1.2-1.4-0.4-0.8-0.5-1.7-0.1-0.8 0.1-1.7l14.8-52.2 20.6-50.5c2.1-5.1 6.3-8.4 11.2-8.6q1.6-0.1 3.3 0.3 1.6 0.4 3 1.2 1.4 0.8 2.6 2 1.1 1.3 1.9 2.7 0.8 1.6 1.2 3.4 0.5 1.7 0.5 3.5 0.1 1.8-0.3 3.5-0.3 1.8-1.1 3.4l-23.4 51.2-18.6 45.1q-0.3 0.6-0.7 1.1-0.4 0.6-1 0.9-0.5 0.4-1.2 0.6-0.6 0.2-1.3 0.2z"/><path class="d" d="m591 266.1l-13.6 0.3c-1.5 0-2.9-0.3-4.2-0.9-1.2-0.6-2.4-1.5-3.2-2.7-0.9-1.1-1.5-2.4-1.7-3.8-0.3-1.4-0.2-2.8 0.2-4.2q0.1-0.4 0.2-0.8 0.1-0.3 0.1-0.7 0.1-0.4 0.2-0.8 0.1-0.3 0.1-0.7 0.1-0.4 0.1-0.9 0-0.4 0.1-0.8 0-0.4-0.1-0.8 0-0.5 0-0.9c-0.1-1.1-0.5-2.1-1.3-3-0.8-0.8-1.8-1.3-2.9-1.5-1.1-0.2-2.3 0.1-3.2 0.6-1 0.6-1.7 1.5-2.2 2.5-2.2 0.1-7.1-0.7-9.4-0.7-4.9-12.5 5.7-28.8 17.1-34.9 11.7-6.3 26.8 0.1 31.3 13.1 6.2 0.1 11.2 6.2 12 13.1 0.8 6.9-2 14.1-6.3 19.4-4.4 5.2-10.1 9.1-13.3 9.1z"/><path class="d" d="m546.1 577.7q-0.8 0-1.6-0.3-0.7-0.3-1.4-0.9-0.6-0.6-0.9-1.3-0.4-0.7-0.5-1.5l-5.1-170.3 63.8 4.6 0.1 0.4c14.4 120.6 9.4 162.4 9.4 162.8q-0.1 0.9-0.5 1.8-0.4 0.8-1.1 1.4-0.8 0.6-1.7 0.9-0.9 0.2-1.8 0.1l-14.1 0.3q-0.8 0-1.5-0.4-0.7-0.4-1.3-1-0.5-0.6-0.8-1.3-0.3-0.7-0.4-1.5l-13.1-123.3q-0.1-0.3-0.2-0.5-0.2-0.2-0.4-0.3-0.2-0.2-0.4-0.3-0.3 0-0.5 0-0.3 0-0.5 0.1-0.2 0.1-0.4 0.2-0.2 0.2-0.4 0.4-0.1 0.2-0.1 0.5l-5.1 123.7q0 0.8-0.3 1.7-0.3 0.8-0.8 1.4-0.6 0.7-1.4 1.1-0.7 0.4-1.6 0.4l-14.9 1q-0.1 0-0.1 0-0.1 0.1-0.1 0.1-0.1 0-0.1 0-0.1 0-0.2 0z"/><path class="e" d="m572.6 423.8q-0.6 0-1.1-0.1c-18.4-0.5-32.7-14.4-36.7-18.6q-0.4-0.4-0.6-0.9-0.3-0.5-0.4-1-0.2-0.6-0.2-1.1 0-0.6 0.1-1.1l10.6-44.8-2.8-38.9q-0.3-4.1 0.2-8.1 0.5-4 1.9-7.8 1.3-3.9 3.5-7.3 2.1-3.5 4.9-6.4 2.4-2.5 5.2-4.4 2.8-1.9 5.9-3.2 3.2-1.3 6.5-1.9 3.4-0.6 6.8-0.4c17.9 0.8 31.9 16.8 32.1 36.3 0.2 30.3-0.7 32.3-1 33-8.9 20.8-4.1 50-2.4 58.5q0.2 0.5 0.1 1.1 0 0.6-0.2 1.1-0.2 0.6-0.5 1.1-0.3 0.5-0.7 0.8c-9.8 9.3-20.3 14.1-31.2 14.1z"/><path class="e" d="m618.7 412.4q-0.8 0-1.5-0.3-0.7-0.2-1.3-0.7-0.6-0.5-1-1.1-0.4-0.7-0.6-1.4l-10.9-47.6-14.7-54.3q-0.4-1.8-0.5-3.5-0.1-1.8 0.3-3.6 0.3-1.8 1.1-3.4 0.7-1.6 1.8-3.1 1-1.3 2.3-2.3 1.3-1 2.9-1.6 1.5-0.6 3.2-0.7 1.6-0.1 3.2 0.2c4.8 1.1 8.4 5.1 9.6 10.4l12 53.2 6 53.9q0 0.9-0.2 1.8-0.3 0.8-0.8 1.5-0.6 0.7-1.3 1.2-0.8 0.4-1.7 0.5l-7.4 0.8q-0.1 0.1-0.1 0.1-0.1 0-0.2 0 0 0-0.1 0-0.1 0-0.1 0z"/><path class="c" d="m30.8 417.5c1.3-0.9 2.4-2 3.2-3.4 0.8-1.3 1.3-2.9 1.5-4.4 0.1-1.6-0.1-3.2-0.6-4.6-0.5-1.5-1.4-2.9-2.5-4l4.2-93-21.2 2.4 1.2 91c-1.8 1.9-2.7 4.5-2.7 7.1 0 2.7 0.9 5.2 2.7 7.2 1.7 2 4.2 3.2 6.8 3.6 2.6 0.3 5.3-0.4 7.4-1.9z"/><path class="c" d="m69.5 575l12.1 2.1 11.9-45.6-15.8-3.1-8.2 46.6z"/><path class="d" d="m102.9 592.4l-37.9-6.7 2.6-14.6 23.2 4.1c2 0.3 3.8 1 5.5 2.1 1.6 1 3 2.4 4.2 4 1.1 1.6 1.9 3.4 2.3 5.3 0.4 1.9 0.5 3.9 0.1 5.8z"/><path class="c" d="m36.4 581h12.3l5.8-47.3h-18.1v47.3z"/><path class="d" d="m72.3 592.4h-38.5v-14.9h23.6c2 0 3.9 0.4 5.7 1.1 1.8 0.8 3.5 1.9 4.8 3.3 1.4 1.3 2.5 3 3.3 4.8 0.7 1.8 1.1 3.7 1.1 5.7q0 0 0 0z"/><path class="d" d="m88.5 568.1q0 0-0.1 0-0.1 0-0.1 0-0.1-0.1-0.2-0.1-0.1 0-0.1 0l-14.5-1.2q-1-0.1-1.8-0.6-0.9-0.5-1.5-1.3-0.6-0.8-0.8-1.8-0.3-0.9-0.1-1.9l13.3-74.7-9-47.5c-0.1-0.4-0.3-0.7-0.6-0.9-0.3-0.3-0.7-0.4-1.1-0.4-0.4 0-0.7 0.2-1 0.5-0.3 0.2-0.5 0.6-0.5 1l-11.3 126.6q0 1-0.5 1.8-0.4 0.9-1.2 1.5-0.7 0.6-1.6 0.9-0.9 0.3-1.9 0.2l-13.6-0.5q-0.9 0-1.7-0.4-0.8-0.4-1.4-1-0.6-0.7-1-1.5-0.3-0.8-0.4-1.7l-0.9-151.8 70.5-8.8 4.9 76.1v0.1l-17 83.6q-0.2 0.8-0.7 1.5-0.4 0.7-1 1.2-0.7 0.5-1.5 0.8-0.7 0.3-1.6 0.3z"/><path class="c" d="m58.1 247.8c-13.6 0-24.5-11-24.5-24.5 0-13.6 10.9-24.6 24.5-24.6 13.6 0 24.6 11 24.6 24.6 0 13.5-11 24.5-24.6 24.5z"/><path class="f" d="m81.3 424.4q-1.5 0-2.9-0.1-1.4-0.2-2.8-0.6-1.4-0.4-2.7-1-1.3-0.6-2.5-1.4c-11.9-7.4-25.4-4.4-32.4-2q-0.5 0.2-1.1 0.2-0.5 0.1-1.1 0-0.5 0-1-0.2-0.5-0.2-1-0.5-0.5-0.3-0.9-0.7-0.3-0.4-0.6-0.8-0.3-0.5-0.5-1-0.2-0.5-0.2-1.1l-12.8-113.6c-2.1-19 9.4-36.9 27.3-42.5q1-0.4 2.1-0.6 4.1-1.2 8.5-1.4 4.3-0.2 8.6 0.6 4.3 0.7 8.3 2.4 4 1.6 7.5 4.1 3.7 2.5 6.7 5.7 2.9 3.2 5.2 7.1 2.2 3.8 3.5 7.9 1.4 4.2 1.8 8.6l10.7 114.4q0.1 0.6 0 1.1-0.1 0.6-0.3 1.1-0.2 0.5-0.5 1-0.3 0.4-0.7 0.8c-3.8 3.5-14.7 12.5-26.2 12.5z"/><path class="f" d="m42.5 326l-28.7-3.2q-1.2-0.1-2.3-0.7-1.1-0.7-1.8-1.7-0.7-1-0.9-2.3-0.2-1.2 0.1-2.4l7.3-27.9c0.5-4.1 2.6-7.9 5.9-10.6 3.3-2.6 7.5-3.8 11.7-3.3 4.2 0.5 8 2.6 10.6 5.9 2.6 3.2 3.8 7.4 3.4 11.6l1.1 28.7q0 1.2-0.5 2.4-0.4 1.1-1.3 2-1 0.8-2.1 1.2-1.2 0.4-2.5 0.3z"/><path class="c" d="m108.9 413.5c1.2-1 2.1-2.3 2.7-3.7 0.7-1.5 1-3 0.9-4.6 0-1.6-0.4-3.1-1.1-4.5-0.7-1.4-1.7-2.7-2.9-3.6l-7.1-92.9-20.8 4.7 12.2 90.4c-1.5 2.2-2.1 4.8-1.8 7.5 0.3 2.6 1.6 5 3.6 6.8 1.9 1.7 4.5 2.7 7.1 2.7 2.7 0 5.2-1 7.2-2.8z"/><path class="f" d="m72.7 320.1q-0.5-0.4-0.8-0.9-0.4-0.5-0.6-1.1-0.3-0.5-0.4-1.1-0.1-0.6-0.1-1.3l1.1-28.6c-0.4-4.2 0.8-8.4 3.4-11.7 2.6-3.3 6.5-5.4 10.6-5.8 4.2-0.5 8.4 0.7 11.7 3.3 3.3 2.6 5.4 6.4 5.9 10.6l7.3 27.9q0.3 1.2 0.1 2.4-0.2 1.2-0.9 2.2-0.7 1.1-1.8 1.7-1.1 0.6-2.3 0.8l-28.7 3.1q-0.6 0.1-1.2 0-0.7 0-1.2-0.2-0.6-0.2-1.2-0.5-0.5-0.3-0.9-0.8z"/><path class="d" d="m56.7 248.7q-0.2 0-0.4 0-0.1 0-0.3 0-0.1 0-0.3 0-0.2-0.1-0.3-0.1h-0.2c-21.5-3.3-26.3-15.9-27.4-21.1-1.1-5.4 0.2-10.6 3-12.6-1.5-4.8-1.3-9.1 0.7-12.7 3.5-6.3 11.1-8.4 12.1-8.7 6.1-4.4 13.3-1.4 14.6-0.8 11.7-4.4 16.2-0.8 17 0 5.3 1 8.5 3 9.5 6.1 2 5.7-4.3 12.8-4.6 13.1l-0.1 0.2-9.4 0.4q-1.3 0.1-2.5 0.7-1.2 0.6-2.1 1.6-0.8 1.1-1.2 2.4-0.4 1.3-0.2 2.6 0.1 0.5 0.2 0.9 0.2 0.4 0.3 0.8 0.1 0.4 0.2 0.9 0.2 0.4 0.3 0.8c1.6 5 2.8 9.3 1.3 10.9q-0.3 0.2-0.6 0.4-0.3 0.1-0.7 0.2-0.3 0.1-0.7 0-0.3 0-0.7-0.1-2.2-0.6-2.9 0.2c-0.8 0.9-0.6 3 0.6 6.1q0.3 0.8 0.4 1.5 0.1 0.8-0.1 1.6-0.1 0.8-0.4 1.5-0.4 0.7-0.9 1.3-0.4 0.4-0.9 0.8-0.5 0.4-1 0.6-0.6 0.3-1.1 0.4-0.6 0.1-1.2 0.1z"/><path class="a" d="m141 593.9h-140q-0.4 0-0.7-0.3-0.3-0.2-0.3-0.7 0-0.4 0.3-0.7 0.3-0.3 0.7-0.3h140q0.4 0 0.7 0.3 0.3 0.3 0.3 0.7 0 0.5-0.3 0.7-0.3 0.3-0.7 0.3z"/><path class="a" d="m629 593.9h-140q-0.4 0-0.7-0.3-0.3-0.2-0.3-0.7 0-0.4 0.3-0.7 0.3-0.3 0.7-0.3h140q0.4 0 0.7 0.3 0.3 0.3 0.3 0.7 0 0.5-0.3 0.7-0.3 0.3-0.7 0.3z"/><path class="b" d="m428.7 424h-242c-4.6 0-9.1-0.9-13.4-2.7-4.2-1.7-8.1-4.3-11.3-7.6-3.3-3.2-5.9-7.1-7.6-11.3-1.8-4.3-2.7-8.8-2.7-13.4v-354c0-4.6 0.9-9.1 2.7-13.4 1.7-4.2 4.3-8.1 7.6-11.3 3.2-3.3 7.1-5.9 11.3-7.6 4.3-1.8 8.8-2.7 13.4-2.7h242c4.6 0 9.2 0.9 13.4 2.7 4.2 1.7 8.1 4.3 11.3 7.6 3.3 3.2 5.9 7.1 7.6 11.3 1.8 4.3 2.7 8.8 2.7 13.4v354c0 4.6-0.9 9.1-2.7 13.4-1.7 4.2-4.3 8.1-7.6 11.3-3.2 3.3-7.1 5.9-11.3 7.6-4.2 1.8-8.8 2.7-13.4 2.7z"/><path class="a" d="m390.7 281h-166c-16.9-0.1-17-25.9 0-26h166c17 0.1 17 25.9 0 26z"/><path class="a" d="m390.7 73h-166c-16.9-0.1-17-25.9 0-26h166c17 0 17 25.9 0 26z"/><path class="a" d="m390.7 329h-166c-16.9-0.1-17-25.9 0-26h166c17 0.1 17 25.9 0 26z"/><path class="a" d="m390.7 377h-166c-16.9-0.1-17-25.9 0-26h166c17 0.1 17 25.9 0 26z"/><path class="f" d="m387.7 223.8h-160c-2.2 0-4.3-0.4-6.3-1.2-2-0.9-3.8-2.1-5.3-3.6-1.6-1.5-2.8-3.4-3.6-5.4-0.9-2-1.3-4.1-1.3-6.3v-89.6c0-2.1 0.4-4.3 1.3-6.3 0.8-2 2-3.8 3.6-5.3 1.5-1.6 3.3-2.8 5.3-3.6 2-0.8 4.1-1.3 6.3-1.3h160c2.2 0 4.3 0.5 6.3 1.3 2 0.8 3.8 2 5.4 3.6 1.5 1.5 2.7 3.3 3.6 5.3 0.8 2 1.2 4.2 1.2 6.3v89.6c0 2.2-0.4 4.3-1.2 6.3-0.9 2-2.1 3.9-3.6 5.4-1.6 1.5-3.4 2.7-5.4 3.6-2 0.8-4.1 1.2-6.3 1.2z"/><path fill-rule="evenodd" class="g" d="m428.7 424h-242c-4.6 0-9.1-0.9-13.4-2.7-4.2-1.7-8.1-4.3-11.3-7.6-3.3-3.2-5.9-7.1-7.6-11.3-1.8-4.3-2.7-8.8-2.7-13.4v-354c0-4.6 0.9-9.1 2.7-13.4 1.7-4.2 4.3-8.1 7.6-11.3 3.2-3.3 7.1-5.9 11.3-7.6 4.3-1.8 8.8-2.7 13.4-2.7h242c4.6 0 9.2 0.9 13.4 2.7 4.2 1.7 8.1 4.3 11.3 7.6 3.3 3.2 5.9 7.1 7.6 11.3 1.8 4.3 2.7 8.8 2.7 13.4v354c0 4.6-0.9 9.1-2.7 13.4-1.7 4.2-4.3 8.1-7.6 11.3-3.2 3.3-7.1 5.9-11.3 7.6-4.2 1.8-8.8 2.7-13.4 2.7zm-242-418c-3.8 0-7.6 0.8-11.1 2.2-3.5 1.5-6.7 3.6-9.4 6.3-2.7 2.7-4.8 5.9-6.3 9.4-1.4 3.5-2.2 7.3-2.2 11.1v354c0 3.8 0.8 7.6 2.2 11.1 1.5 3.5 3.6 6.7 6.3 9.4 2.7 2.7 5.9 4.8 9.4 6.3 3.5 1.4 7.3 2.2 11.1 2.2h242c3.8 0 7.6-0.8 11.1-2.2 3.5-1.5 6.7-3.6 9.4-6.3 2.7-2.7 4.8-5.9 6.3-9.4 1.5-3.5 2.2-7.3 2.2-11.1v-354c0-3.8-0.7-7.6-2.2-11.1-1.5-3.5-3.6-6.7-6.3-9.4-2.7-2.7-5.9-4.8-9.4-6.3-3.5-1.4-7.3-2.2-11.1-2.2z"/></svg>