<svg version="1.2" xmlns="http://www.w3.org/2000/svg" viewBox="0 0 679 607" width="679" height="607"><style>.a{fill:#a0616a}.b{fill:#e6e6e6}.c{fill:#d7d7d8}.d{fill:#fff}.e{fill:#d71a21}.f{fill:#2f2e41}.g{fill:#ffb6b6}.h{fill:#2e2e41}</style><path class="a" d="m183.4 55.9c2.7-7 8.7-11.1 13.2-9.2 4.6 1.8 6.1 9 3.3 15.9-1.1 2.8-2.8 5.3-5.1 7.3l-12 29.3-14.1-6.3 13.4-28.2c-0.3-3.1 0.1-6.1 1.3-8.8z"/><path class="b" d="m132.9 242.8c0 0-20.2-9.8-18.8-16.8 1.5-7 61.6-156.7 61.6-156.7l27.8 18.3c0 0-70.6 155.2-70.6 155.2z"/><path class="c" d="m435.8 606.2h-193.2c-28.1 0-50.9-22.9-50.9-51v-504.3c0-28.1 22.8-50.9 50.9-50.9h193.2c28 0 50.9 22.8 50.9 50.9v504.3c0 28.1-22.9 51-50.9 51z"/><path class="d" d="m435.9 592.4h-193.4c-20.8 0-37.7-16.9-37.7-37.7v-504.2c0-20.8 16.9-37.7 37.7-37.7h193.4c20.8 0 37.7 16.9 37.7 37.7v504.2c0 20.8-16.9 37.7-37.7 37.7z"/><path class="c" d="m366.6 46.4h-54.7c-7.3 0-13.1-5.9-13.1-13.1 0-7.3 5.8-13.1 13.1-13.1h54.6c7.3 0 13.1 5.8 13.1 13.1 0 7.2-5.8 13.1-13.1 13.1z"/><path class="e" d="m247.8 201.8h182.8c8.3 0 15 6.7 15 15 0 8.2-6.7 14.9-15 14.9h-182.8c-8.3 0-15-6.7-15-14.9 0-8.3 6.7-15 15-15z"/><path class="e" d="m239.9 176.9h60.4c1.5 0 2.6 1.2 2.6 2.6 0 1.5-1.1 2.6-2.6 2.6h-60.4c-1.5 0-2.7-1.1-2.7-2.6 0-1.4 1.2-2.6 2.7-2.6z"/><path class="c" d="m247.8 303.2h182.8c8.3 0 15 6.7 15 15 0 8.2-6.7 14.9-15 14.9h-182.8c-8.3 0-15-6.7-15-14.9 0-8.3 6.7-15 15-15z"/><path class="c" d="m239.9 278.3h60.4c1.5 0 2.6 1.1 2.6 2.6 0 1.4-1.1 2.6-2.6 2.6h-60.4c-1.5 0-2.7-1.2-2.7-2.6 0-1.5 1.2-2.6 2.7-2.6z"/><path class="c" d="m247.8 404.6h182.8c8.3 0 15 6.7 15 14.9 0 8.3-6.7 15-15 15h-182.8c-8.3 0-15-6.7-15-15 0-8.2 6.7-14.9 15-14.9z"/><path class="c" d="m239.9 379.7h60.4c1.5 0 2.6 1.1 2.6 2.6 0 1.4-1.1 2.6-2.6 2.6h-60.4c-1.5 0-2.7-1.2-2.7-2.6 0-1.5 1.2-2.6 2.7-2.6z"/><path class="f" d="m538 123.4c0 0-20.7 2.3-22 34.3-1.1 26.5-3.4 41.4 7.5 46.9 3.8 2 8.4 2.2 12.5 0.8l44.2-14.5c0 0 0.6-47.9-14.7-59.5-15.3-11.7-27.5-8-27.5-8z"/><path class="g" d="m562.3 196.8l-22.3 7.3v-32.2h20.2l2.1 24.9z"/><path class="g" d="m494 379.5c-1.3 7.4-6.2 12.7-11 11.8-4.9-0.9-7.8-7.5-6.6-14.9 0.4-2.9 1.6-5.7 3.4-8.1l5.5-31.2 15.1 3.2-7 30.3c0.9 2.9 1.1 6 0.6 8.9z"/><path class="g" d="m615.9 375.9c1.4 7.3-1.3 14-6.1 15-4.9 0.9-10-4.3-11.5-11.6-0.6-2.9-0.5-6 0.3-8.8l-5.9-31.2 15.2-2.4 4.2 31c1.9 2.3 3.2 5.1 3.8 8z"/><path class="g" d="m533 557.1h20.9v29.7h-20.9z"/><path class="f" d="m512.6 604.8c-2.2 0-4.2-0.1-5.7-0.2-5.5-0.5-10.8-4.6-13.5-7-1.2-1.1-1.6-2.8-1-4.3 0.5-1.1 1.4-1.9 2.5-2.2l14.7-4.2 23.8-16 0.2 0.4c0.1 0.2 2.5 4.4 3.3 7.3q0.4 1.6-0.3 2.6c-0.3 0.5-0.7 0.8-1.1 1 0.5 0.4 1.8 1.3 6 2 6.1 1 7.3-5.3 7.4-5.6v-0.2l0.2-0.1q4.3-2.8 5.3-2.6c0.4 0.1 1 0.3 2.7 17.5 0.2 0.5 1.4 4.5 0.6 8.2-0.9 4.1-18.8 2.7-22.4 2.4-0.1 0-13.5 1-22.7 1z"/><path class="g" d="m595.8 544.8l17.7-11.1 15.7 25.2-17.7 11.1z"/><path class="f" d="m589.9 600.7c-2.4 0-4.7-0.3-6.3-0.6-1.6-0.3-2.8-1.5-3.1-3.1-0.2-1.1 0.2-2.3 0.9-3.1l10.3-11.4 11.7-26.2 0.5 0.3c0.2 0.1 4.4 2.4 6.5 4.4q1.3 1.1 1.3 2.4c-0.1 0.6-0.3 1-0.5 1.4 0.6 0.1 2.2 0.2 6.1-1.5 5.7-2.4 3.4-8.4 3.3-8.6v-0.2-0.2q2.3-4.7 3.2-5c0.4-0.1 1-0.2 11.5 13.4 0.5 0.4 3.6 3.1 4.9 6.7 1.4 3.9-14.6 12.2-17.8 13.9-0.1 0-16.8 12.2-23.6 15.6-2.7 1.4-6 1.8-8.9 1.8z"/><path class="f" d="m569.3 308.6h-58.6l-5.3 54.6 23.3 201.5h29.9l-12-116.4 48.6 105.1 26.6-18.6-37.9-98.1c0 0 13.5-85.5 2.9-106.8-10.7-21.3-17.5-21.3-17.5-21.3z"/><path class="e" d="m598.5 311.9l-101.8 0.1 36.6-120.4h40.6l24.6 120.4z"/><path class="e" d="m539.7 191.6c0 0-25.3-0.7-27.9 6-2.7 6.6-33.9 164.9-33.9 164.9h20.6c0 0 41.2-170.9 41.2-170.9z"/><path class="e" d="m556.1 191.7c0 0 22.3-2.8 25 3.9 2.6 6.6 33.9 164.9 33.9 164.9h-20.6z"/><path class="g" d="m542.7 180.9c-12.3 0-22.3-10-22.3-22.3 0-12.3 10-22.3 22.3-22.3 12.3 0 22.3 10 22.3 22.3 0 12.3-10 22.3-22.3 22.3z"/><path class="f" d="m536.6 131.7c0 0-12.2 49.8 1.4 73.1l-19.2-4.1c0 0-7.5-54.5 7.5-64.4l10.3-4.6z"/><path class="h" d="m678.6 603.6c0 0.8-0.6 1.5-1.5 1.5h-675.6c-0.8 0-1.5-0.7-1.5-1.5 0-0.9 0.7-1.5 1.5-1.5h675.6c0.9 0 1.5 0.6 1.5 1.5z"/><path class="a" d="m115.1 174.7l25.6 8.5v-36.9h-23.2l-2.4 28.4z"/><path class="a" d="m137.5 156.5c-14.1 0-25.5-11.4-25.5-25.5 0-14.2 11.4-25.6 25.5-25.6 14.2 0 25.6 11.4 25.6 25.6 0 14.1-11.4 25.5-25.6 25.5z"/><path class="f" d="m131 133l3.6 4.2 6.3-11.1c0 0 8.1 0.4 8.1-5.6 0-6 7.5-6.2 7.5-6.2 0 0 10.5-18.4-11.3-13.6 0 0-15.2-10.4-22.7-1.5 0 0-23.1 11.6-16.5 31.9l11 20.9 2.5-4.7c0 0-1.5-19.9 11.5-14.4z"/><path class="a" d="m128.4 587.1h-21v-29.7h21z"/><path class="f" d="m126 604.1c-3.5 0.3-21.5 1.8-22.4-2.4-0.8-3.7 0.4-7.7 0.6-8.2 1.7-17.1 2.4-17.3 2.8-17.4q0.9-0.3 5.2 2.5l0.2 0.1 0.1 0.2c0 0.3 1.3 6.6 7.4 5.6 4.1-0.7 5.5-1.6 5.9-2-0.4-0.2-0.8-0.5-1.1-0.9q-0.7-1.1-0.2-2.7c0.7-2.9 3.1-7.1 3.2-7.2l0.3-0.5 23.8 16 14.7 4.2c1.1 0.4 2 1.1 2.4 2.2 0.6 1.5 0.2 3.2-1 4.3-2.6 2.4-7.9 6.5-13.5 7-1.5 0.1-3.4 0.2-5.6 0.2-9.2 0-22.6-1-22.7-1z"/><path class="f" d="m155.1 301.3l-54.9-2.9c0 0-8.5 32 2.2 65.2l1.3 200.3h31l29.3-206.6z"/><path class="b" d="m145.8 167.7l-30.1-16c0 0-32.5 47.4-28 73.2 4.5 25.7 12.5 73.6 12.5 73.6l66.5 2.8-11.6-94.3z"/><path class="a" d="m143.3 587.1h-21v-29.7h21z"/><path class="f" d="m140.9 604.1c-3.5 0.3-21.5 1.8-22.4-2.4-0.8-3.7 0.4-7.7 0.6-8.2 1.7-17.1 2.4-17.3 2.7-17.4q1-0.3 5.3 2.5l0.2 0.1 0.1 0.2c0 0.3 1.3 6.6 7.3 5.6 4.2-0.7 5.6-1.6 6-2-0.4-0.2-0.8-0.5-1.1-0.9q-0.7-1.1-0.2-2.7c0.7-2.9 3.1-7.1 3.2-7.2l0.3-0.5 23.8 16 14.7 4.2c1.1 0.4 2 1.1 2.4 2.2 0.6 1.5 0.2 3.2-1 4.3-2.6 2.4-7.9 6.5-13.5 7-1.5 0.1-3.4 0.2-5.6 0.2-9.2 0-22.6-1-22.7-1z"/><path class="f" d="m166.7 301.3l-66.5-2.9c0 0-8.5 32 2.2 65.2l12.8 200.3h31.1l29.2-206.6z"/><path class="a" d="m192.2 353.6c2.5 7 0.7 14-4 15.6-4.7 1.5-10.4-2.9-12.9-10-1-2.8-1.3-5.8-0.9-8.8l-9.9-30 14.7-4.4 8.3 30.1c2.2 2 3.8 4.6 4.7 7.4z"/><path class="b" d="m108.5 178.9c0 0 21.7-5.7 25.3 0.5 3.5 6.3 55.5 159 55.5 159l-33 4.3-47.7-163.8z"/></svg>