<svg version="1.2" xmlns="http://www.w3.org/2000/svg" viewBox="0 0 582 694" width="582" height="694"><style>.a{fill:#3f3d56}.b{fill:#ff6584}.c{fill:#d71a21}.d{fill:#9777fa}.e{fill:#ccc}.f{fill:#f2f2f2}.g{opacity:.1}</style><path class="a" d="m510.7 350.5q15.2 2 30.3 5.1v1.8q-15-3-30.3-5-7.3-1-14.5-1.7-7.3-0.7-14.6-1.2-7.4-0.5-14.7-0.7-7.3-0.3-14.6-0.3h-0.7c-15.6 0-31.3 0.9-46.8 2.5-15.6 1.7-31 4.3-46.3 7.6-15.3 3.3-30.4 7.5-45.2 12.4-14.8 5-29.4 10.8-43.6 17.3q-17.8 8.1-34.7 17.7-14 7.9-27.5 16.9-13.4 8.9-26.1 18.8-12.8 9.9-24.8 20.6-12 10.8-23.2 22.4-7.6 7.8-14.8 16-7.2 8.2-13.9 16.7-6.8 8.6-13.2 17.5-6.3 8.8-12.2 18-3 4.6-5.9 9.3-2.9 4.8-5.7 9.6-2.7 4.8-5.4 9.7-2.6 4.8-5.1 9.8-2.6 4.9-4.9 9.9-5.2 10.7-9.7 21.7-4.5 10.9-8.4 22.1-4 11.2-7.3 22.6-3.3 11.4-5.9 22.9-0.3 1-0.5 2-0.1 0.3-0.1 0.6l-2-0.4q0-0.1 0.1-0.2 0.2-1 0.4-2 2.7-11.8 6.1-23.5 3.4-11.6 7.4-23.1 4-11.5 8.7-22.7 4.6-11.2 9.9-22.1 2.5-5.3 5.2-10.5 2.7-5.2 5.5-10.4 2.8-5.1 5.7-10.1 2.9-5.1 6-10.1 2.9-4.6 5.9-9.3 5.9-9 12.2-17.8 6.4-8.8 13.1-17.3 6.8-8.5 13.9-16.6 7.2-8.2 14.8-15.9 4.6-4.8 9.3-9.4 4.8-4.6 9.7-9.1 4.9-4.5 9.9-8.8 5-4.3 10.2-8.5 7.3-6 15-11.6 7.6-5.7 15.4-11 7.8-5.3 15.9-10.2 8-5 16.3-9.6 14-7.9 28.4-14.6c14.7-6.9 29.8-13 45.2-18.3 15.5-5.2 31.2-9.6 47.1-13.1 15.8-3.5 31.9-6.1 48.1-7.9 16.2-1.7 32.5-2.6 48.8-2.5q7.2 0 14.5 0.3 7.3 0.2 14.6 0.7 7.3 0.5 14.5 1.2 7.3 0.8 14.5 1.8z"/><path class="b" d="m300.1 123.7c-30 0-54.3-24.3-54.3-54.3 0-30 24.3-54.3 54.3-54.3 30 0 54.3 24.3 54.3 54.3 0 30-24.3 54.3-54.3 54.3z"/><path class="c" d="m66.1 680.8c1.7 6.2 7.5 10.1 7.5 10.1 0 0 3.1-6.3 1.4-12.5-1.7-6.3-7.5-10.2-7.5-10.2 0 0-3.1 6.3-1.4 12.6z"/><path class="d" d="m68.6 679.4c4.6 4.6 5.2 11.5 5.2 11.5 0 0-7-0.4-11.6-4.9-4.6-4.5-5.2-11.5-5.2-11.5 0 0 7 0.4 11.6 4.9z"/><path class="c" d="m195.1 680.8c1.7 6.2 7.5 10.1 7.5 10.1 0 0 3.1-6.3 1.4-12.5-1.7-6.3-7.5-10.2-7.5-10.2 0 0-3.1 6.3-1.4 12.6z"/><path class="d" d="m197.6 679.4c4.6 4.6 5.2 11.5 5.2 11.5 0 0-7-0.4-11.6-4.9-4.6-4.5-5.2-11.5-5.2-11.5 0 0 7 0.4 11.6 4.9z"/><path class="a" d="m541 131.6v64.7l-30.3 20.4-44.5 30-49.4 33.3-77.6-38.8-98.1-49-20.4-10.2-20.4-16.3 63-56.3 18.1-16.2c5.3-4.7 11-9 17.1-12.7 6.1-3.6 12.4-6.8 19.1-9.3 6.6-2.5 13.4-4.5 20.4-5.7 7-1.3 14.1-2 21.2-2h113.7c8.9 0 17.8 1.8 26.1 5.2 8.2 3.4 15.7 8.5 22.1 14.8 6.3 6.3 11.3 13.8 14.7 22.1 3.4 8.2 5.2 17.1 5.2 26z"/><path class="e" d="m511 165.4l30-32.7c52.5 193.7 56.8 380.8 0 559.9h-38.1l-2-2.1-53.1-53.1-30.9-30.8 0.8-5.9 2.8-20.4 6.2-45 6.7-49 6.7-49 6.7-49 5.5-39.8 0.2-2 1-7.2 6.7-49.1 6-43.5 0.8-5.5 4.9-36.1 2-14.9 36.8-24.5z"/><path class="f" d="m200.3 165.6h310.4v527h-310.4c-33.9-192.8-42.5-372.8 0-527z"/><path class="e" d="m320.8 563.9h57.2v128.7h-57.2z"/><path class="a" d="m235 486.3h236.9v49h-236.9z"/><path class="a" d="m389 603.4h101v20.9h-101z"/><path class="a" d="m209 603.4h101v20.9h-101z"/><path class="a" d="m235 388.3h236.9v49h-236.9z"/><path class="a" d="m235 290.2h236.9v49.1h-236.9z"/><path class="a" d="m235 192.2h236.9v49h-236.9z"/><path class="a" d="m0 690.5h541v2h-541z"/><path class="a" d="m73.4 459.6h5.9v232.1h-5.9z"/><path class="c" d="m133.5 489.2c0.4 81.1-56.7 147.2-56.7 147.2 0 0-57.7-65.5-58.1-146.7-0.4-81.1 56.7-147.2 56.7-147.2 6.1-21.5 71.1 18.2 58.1 146.7z"/><path class="g" d="m133.5 489.2c0.4 81.1-56.7 147.2-56.7 147.2 0 0-57.7-65.5-58.1-146.7-0.4-81.1 56.7-147.2 56.7-147.2 6.1-21.5 71.1 18.2 58.1 146.7z"/><path class="a" d="m0 459.6h2.9v232.1h-2.9z"/><path class="c" d="m57.1 489.2c68.9 17.8-5.1 60.2-18.9 84.8q-3.5 7.9-7.4 15.6-4 7.7-8.4 15.2-4.4 7.4-9.3 14.5-4.9 7.2-10.2 14c-1.6 2-2.5 3.1-2.5 3.1l-0.4-0.5v-292.2q5.7 7 10.9 14.3 5.2 7.4 9.9 15.1 4.7 7.6 8.9 15.6 4.2 8 7.9 16.2c10.6 23.8-10.9 76.4 19.5 84.3z"/><path class="f" d="m141.2 279.4c0 0-37.4-0.3-83.7-0.1-22.2 0.1-42.5 0.3-57.5 0.5v-25.8c16.2-12.4 37.5-22.3 57.4-11.1 39 22 83.8 36.5 83.8 36.5z"/><path class="f" d="m225.5 41.3c-46.2 0.2-83.9 0.9-83.9 0.9 0 0 44.8-59.3 83.8-37.3 39 22 83.8 36.5 83.8 36.5 0 0-37.4-0.3-83.7-0.1z"/><path class="a" d="m353.9 61.6l124.2-6.1c8.4-0.4 16.9 0.8 25 3.5 8 2.7 15.5 6.9 22 12.4 6.6 5.4 12 12.1 16.1 19.5 4 7.5 6.7 15.6 7.7 24.1l15.1 118.6-52.9-68.2h-0.1l-158.3-82.2-3.2-1.6c-9.6-5-6.4-19.5 4.4-20z"/><path class="f" d="m316 102.4h101v20.9h-101z"/><path class="f" d="m378 550.6h-47q-49.1-191.6 0-376h47c29.9 127.5 31 252.9 0 376z"/></svg>